<?xml version="1.0" encoding="utf-8"?>
<!-- Generator: Adobe Illustrator 25.0.1, SVG Export Plug-In . SVG Version: 6.00 Build 0)  -->
<svg version="1.0" id="Capa_1" xmlns="http://www.w3.org/2000/svg" xmlns:xlink="http://www.w3.org/1999/xlink" x="0px" y="0px"
	 viewBox="0 0 21.1574993 42.599781" style="enable-background:new 0 0 21.1574993 42.599781;" xml:space="preserve">
<style type="text/css">
	.st0{fill-rule:evenodd;clip-rule:evenodd;fill:#60A8B8;}
	.st1{fill-rule:evenodd;clip-rule:evenodd;fill:#010200;}
	.st2{fill-rule:evenodd;clip-rule:evenodd;fill:#CC5C50;}
	.st3{fill-rule:evenodd;clip-rule:evenodd;fill:#E1A140;}
	.st4{fill:#60A8B8;}
	.st5{fill:#D47B79;}
	.st6{opacity:0.619995;}
	.st7{clip-path:url(#SVGID_2_);fill-rule:evenodd;clip-rule:evenodd;fill:#60A8B8;}
</style>
<g>
	<g>
		<g>
			<polygon class="st0" points="0.4918474,27.3875408 0.4918474,24.8895473 0.6288446,24.7185421 0.7828439,24.5315456 
				0.8858446,24.4285412 0.9888452,24.3085461 1.1248468,24.1885433 1.2448457,24.0695477 1.5538439,23.8295422 1.707847,23.709547 
				1.8788446,23.5895443 2.0498459,23.4875469 2.2208436,23.4025478 2.615844,23.2135448 3.0778458,23.0255413 
				3.5918458,22.7855434 4.1218448,22.5295467 4.4648471,22.3415432 4.789844,22.1355419 5.0808444,21.9135418 
				5.3558459,21.6745434 5.6128459,21.4345455 5.834846,21.1955471 6.039844,20.9555416 6.2458453,20.6995449 6.4168429,20.4435482 
				6.5718417,20.1865444 6.7248416,19.9295406 6.8458438,19.6905422 6.9648471,19.4505444 7.0678439,19.2105465 7.239841,18.749548 
				7.2908435,18.6295452 7.341846,18.5095425 7.478847,18.2535458 7.6328464,17.996542 7.7868457,17.7575436 8.0608397,17.3805447 
				8.1638441,17.2275448 9.3628416,18.4075451 7.8218417,20.0835476 7.6848407,20.2375469 7.5648456,20.4085445 
				7.4448428,20.5795422 7.341846,20.7675457 7.1538424,21.1605434 6.9828448,21.5545406 6.690845,22.2395458 6.5718417,22.5125408 
				6.5198474,22.6155453 6.4688449,22.7005444 6.2458453,22.9745464 5.9038463,23.3335476 5.5098453,23.7435436 
				5.0978465,24.1375408 4.9098468,24.3245449 4.704845,24.5135479 4.5158458,24.6675472 4.4138446,24.7525463 
				4.2938457,24.8385448 4.190845,24.9075451 4.0878444,24.9755459 3.865844,25.095541 3.6258461,25.1985455 3.3858445,25.3005428 
				3.1628449,25.3685436 2.9578469,25.4535427 2.7868454,25.5395412 2.6328461,25.6085415 2.3248436,25.8135433 
				1.964847,26.0525417 1.8098444,26.1725445 1.6568445,26.2755413 1.3648447,26.5145473 1.1078447,26.7375469 
				0.8858446,26.9425411 0.5948442,27.2495441 			"/>
			<rect x="0.405948" y="24.8894405" class="st1" width="0.1539993" height="2.4799995"/>
			<polygon class="st1" points="0.4230493,24.8386364 0.5600466,24.6676388 0.9370493,24.2566433 1.4850458,23.7776394 
				1.8270487,23.5216427 2.1870492,23.3336391 2.2560456,23.4706402 1.8960489,23.6576366 1.5880464,23.8986416 
				1.0400461,24.3766384 0.6630472,24.7866421 0.5260462,24.9576397 			"/>
			<polygon class="st1" points="0.405948,24.8894405 0.405948,24.855444 0.4229463,24.8384457 0.525947,24.9574413 
				0.5599474,24.8894405 			"/>
			<polygon class="st1" points="2.1872475,23.3338375 3.0432465,22.9568386 4.0882449,22.460844 4.1562457,22.5978451 
				3.1122468,23.0938396 2.2552445,23.4708385 			"/>
			<path class="st1" d="M2.1872475,23.3338375l0.067997,0.137001L2.1872475,23.3338375z"/>
			<polygon class="st1" points="4.0880466,22.4607372 4.4310451,22.2737408 4.7390437,22.0847378 5.0300441,21.8617382 
				5.3040462,21.6227398 5.7830462,21.144743 6.1770434,20.6487408 6.5030398,20.1347408 6.7770419,19.6557446 
				7.0000415,19.1767406 7.1710391,18.7157421 7.3080401,18.7837429 7.1360431,19.2457409 6.9140429,19.7247372 
				6.6230426,20.2367382 6.2970462,20.7507381 5.8860431,21.2637386 5.407043,21.7427425 5.1330447,21.981741 4.8410449,22.2047405 
				4.4990458,22.4097424 4.1560435,22.5977383 			"/>
			<path class="st1" d="M4.1564479,22.5974407l-0.0680008-0.1369934L4.1564479,22.5974407z"/>
			<polygon class="st1" points="7.17065,18.7156429 7.2736468,18.4756451 7.4106479,18.201643 7.7186465,17.7056484 
				8.095645,17.1756496 8.2156477,17.2786465 7.8386493,17.8086452 7.530643,18.3046474 7.4106479,18.5436459 7.3076434,18.7836437 
							"/>
			<path class="st1" d="M7.17065,18.7156429l0.1369934,0.0680008L7.17065,18.7156429z"/>
			<polygon class="st1" points="8.2155485,17.1755428 8.1125441,17.2955456 9.3115416,18.4755459 9.414546,18.3565502 			"/>
			<polygon class="st1" points="8.0954466,17.1755428 8.1474409,17.1075497 8.2154417,17.1755428 8.1124449,17.2955456 
				8.2154417,17.2785473 			"/>
			<polygon class="st1" points="9.4142485,18.4588375 7.8722415,20.13484 7.7532458,20.0318432 9.2942457,18.3558407 			"/>
			<polygon class="st1" points="9.4142485,18.3562374 9.4652433,18.4072399 9.4142485,18.4592419 9.2942457,18.3562374 
				9.311244,18.4752407 			"/>
			<polygon class="st1" points="7.872745,20.1345425 7.6157413,20.459547 7.4107394,20.8015499 7.0507388,21.5715466 
				6.7597384,22.2735424 6.6397433,22.546545 6.5377383,22.735548 6.3997378,22.6655483 6.5027423,22.4785442 6.622745,22.2045498 
				6.9137378,21.5025463 7.2737384,20.7335491 7.496738,20.3575497 7.7527423,20.0315456 			"/>
			<path class="st1" d="M7.7531466,20.0320415l0.1199951,0.1030045L7.7531466,20.0320415z"/>
			<polygon class="st1" points="6.5202518,22.7517376 5.9552493,23.3847408 5.150249,24.1887417 5.0302501,24.0857449 
				5.8352504,23.281744 6.400249,22.6487408 			"/>
			<polygon class="st1" points="6.5373492,22.7351437 6.5203433,22.7521496 6.4003482,22.6491451 6.4003482,22.666151 			"/>
			<polygon class="st1" points="5.1500468,24.2058392 4.7560458,24.5818462 4.3450465,24.8898449 3.9000466,25.1638393 
				3.6600449,25.2668438 3.4200432,25.3688412 3.3520463,25.2318401 3.5910447,25.1298428 3.8140442,25.0438442 
				4.2420459,24.7698421 4.6530452,24.4628429 5.0470462,24.085844 			"/>
			<polygon class="st1" points="5.1500468,24.1882381 5.1500468,24.2062435 5.0470462,24.0852413 5.0300441,24.0852413 			"/>
			<polygon class="st1" points="3.4201462,25.3689404 2.9921448,25.5219479 2.6841462,25.6769466 2.0161431,26.1209469 
				1.9131464,26.0019436 2.5811455,25.5569439 2.9231446,25.3859463 3.3521454,25.2319469 			"/>
			<path class="st1" d="M3.4201462,25.3689404l-0.0680008-0.1369934L3.4201462,25.3689404z"/>
			<polygon class="st1" points="2.0158494,26.1209393 1.4168466,26.5829449 1.1598467,26.8059444 0.9368471,27.0109425 
				0.5258478,27.4219418 0.4058489,27.3189411 0.8338464,26.891943 1.056846,26.6849422 1.313846,26.4639416 1.9128488,26.0019436 
							"/>
			<path class="st1" d="M1.9132494,26.0017376l0.1029967,0.1190033L1.9132494,26.0017376z"/>
			<polygon class="st0" points="20.6662483,27.3875408 20.6662483,24.8895473 20.6312447,24.8385448 20.5292473,24.7015438 
				20.3742409,24.496542 20.2892418,24.3765469 20.1692467,24.2565441 20.0492439,24.1195431 19.9292412,24.0005474 
				19.7752419,23.8805447 19.6212425,23.7605419 19.4672432,23.6415462 19.2962456,23.5385418 19.210247,23.5045452 
				19.1072426,23.470541 19.021244,23.4185467 18.9192467,23.4025478 18.5082436,23.2825451 18.1832466,23.1615429 
				17.9092445,23.0595455 17.6692467,22.9565411 17.4292412,22.8375454 17.1892433,22.7175426 16.5902443,22.3755474 
				16.3502464,22.2045422 16.2302437,22.1185436 16.1102409,22.0165462 16.0072441,21.9135418 15.9052458,21.8115444 
				15.6992445,21.5885448 15.5282469,21.3665447 15.3572416,21.110548 15.2032423,20.8695431 15.0482435,20.6145458 
				14.7742414,20.0835476 14.535243,19.5875454 14.2782469,19.1085415 14.1582441,18.9035473 14.0382414,18.6985455 
				13.7302427,18.2705441 13.3872404,17.7745419 12.9762449,17.2275448 11.7772474,18.4415417 11.863246,18.4755459 
				12.0862455,18.6125469 12.2402449,18.7155437 12.4282408,18.8525448 12.6342421,19.0235424 12.8392439,19.2285442 
				13.0792418,19.485548 13.3192472,19.758543 13.4382429,19.9295406 13.5592451,20.1005459 13.6782408,20.2715435 
				13.7982435,20.459547 14.0382414,20.8875408 14.1582441,21.1265469 14.2782469,21.3665447 14.398242,21.6225414 
				14.500247,21.8795452 14.6202421,22.1705456 14.7232466,22.4605465 14.7742414,22.5975475 14.8952436,22.7695446 
				15.0312452,22.9745464 15.2202406,23.2135448 15.4252424,23.4525433 15.6312437,23.709547 15.8362455,23.9325466 
				16.0422478,24.1375408 16.1452446,24.2405453 16.2302437,24.3245449 16.436245,24.4795437 16.6412468,24.633543 
				16.8472481,24.7525463 16.9492455,24.8215466 17.0522423,24.8725414 17.2752419,24.9755459 17.4982414,25.095541 
				17.7372475,25.1985455 17.960247,25.3005428 18.1662483,25.3855419 18.3362465,25.4885464 18.4912453,25.5915432 
				18.8162422,25.796545 19.1762428,26.0525417 19.3472481,26.1725445 19.5012474,26.2755413 19.7922478,26.5145473 
				20.0322456,26.7375469 20.2552452,26.9425411 20.5632439,27.2495441 			"/>
			<rect x="20.5969505" y="24.8894405" class="st1" width="0.1539993" height="2.4799995"/>
			<polygon class="st1" points="20.5973473,24.9412365 20.4603462,24.7532406 20.1183434,24.3082409 19.8783455,24.0512371 
				19.5703468,23.8122387 19.2613411,23.6072369 18.8853416,23.4702435 18.9533424,23.3342419 19.3303413,23.4702435 
				19.6723442,23.6922436 19.9813423,23.9492397 20.2213402,24.2062435 20.5803413,24.6502438 20.7173424,24.855238 			"/>
			<polygon class="st1" points="20.7516518,24.8894405 20.7516518,24.9074459 20.7176476,24.855444 20.5976448,24.9414425 
				20.5976448,24.8894405 			"/>
			<polygon class="st1" points="18.8849449,23.470541 18.1489449,23.2305431 17.6169395,23.0255413 17.1379433,22.7855434 
				16.5389442,22.4265423 16.6239433,22.3075466 17.2239418,22.6655483 17.6859398,22.8885479 18.1999397,23.0935421 
				18.9359398,23.3335476 			"/>
			<polygon class="st1" points="18.9533501,23.3338375 18.9363441,23.3338375 18.8853493,23.4708385 			"/>
			<polygon class="st1" points="16.5387459,22.4265423 16.059742,22.084547 15.8537397,21.8795452 15.6307402,21.6405468 
				15.2887449,21.1605434 14.9797392,20.6645489 14.4497404,19.6215496 14.2097425,19.159544 13.9697447,18.749548 
				14.0897398,18.6635494 14.3297377,19.0735455 14.585742,19.5535488 15.1007414,20.5795498 15.40874,21.0755444 
				15.7507429,21.5375423 15.9557447,21.7595425 16.1617393,21.9645443 16.6417427,22.3075466 			"/>
			<polygon class="st1" points="16.5387459,22.4265423 16.6417427,22.3075466 16.623745,22.3075466 			"/>
			<polygon class="st1" points="13.9699507,18.7498379 12.9079466,17.2778454 13.0279493,17.1758404 14.0899458,18.6458416 			"/>
			<polygon class="st1" points="14.0895491,18.6638393 14.0895491,18.6458416 13.9695463,18.7498455 			"/>
			<polygon class="st1" points="13.0280485,17.2957439 12.9250441,17.1757488 11.7260466,18.3907452 11.8290434,18.5097485 			"/>
			<polygon class="st1" points="13.0280485,17.1755428 12.9760466,17.1075497 12.9250441,17.1755428 13.0280485,17.2955456 
				12.9080458,17.2785473 			"/>
			<polygon class="st1" points="11.8117476,18.372839 12.1207457,18.5438442 12.4797468,18.8008404 12.6677427,18.9718456 
				12.8907423,19.1768398 13.1137419,19.4338436 13.3537474,19.7068462 13.8667402,20.4258404 14.1067457,20.8528423 
				14.3467436,21.3318462 14.5687437,21.8458462 14.774745,22.4268398 14.6377439,22.4948406 14.4327421,21.9138393 
				14.2097425,21.3998394 13.9697447,20.9218426 13.7297468,20.4938412 13.2337446,19.8098431 12.9937468,19.535841 
				12.7887449,19.2968426 12.5657454,19.0918407 12.3767424,18.9208431 12.0517454,18.6808453 11.7437468,18.50984 			"/>
			<polygon class="st1" points="11.7262449,18.39044 11.6582441,18.4584408 11.7432432,18.5094433 11.811244,18.3724422 
				11.8292418,18.5094433 			"/>
			<polygon class="st1" points="14.7746458,22.4265423 14.9456434,22.7175426 15.2716398,23.1615429 15.6826429,23.6415462 
				16.0936394,24.0855465 15.9736433,24.1885433 15.5626402,23.7435436 15.1516447,23.2655468 14.8256407,22.8205471 
				14.6376448,22.4945431 			"/>
			<path class="st1" d="M14.6378508,22.4949398l0.1369934-0.0679932L14.6378508,22.4949398z"/>
			<polygon class="st1" points="16.0934486,24.0857372 16.4874458,24.4287395 16.881443,24.6847439 17.3094444,24.906744 
				17.7714424,25.1117382 17.7034416,25.2487392 17.2404442,25.0437374 16.8124428,24.8207378 16.3844414,24.5477428 
				15.9904432,24.20574 			"/>
			<polygon class="st1" points="15.9733458,24.1882381 15.990344,24.2062435 16.0933418,24.0852413 			"/>
			<polygon class="st1" points="17.7716484,25.1121426 18.1996422,25.3171444 18.5246468,25.5221462 19.2276421,26.0021496 
				19.1246452,26.1211452 18.456646,25.6601467 18.1316414,25.4541454 17.7036476,25.2491436 			"/>
			<path class="st1" d="M17.7716484,25.1121426l-0.0680008,0.137001L17.7716484,25.1121426z"/>
			<polygon class="st1" points="19.2272453,26.0017376 19.8442421,26.4637432 20.0832405,26.6857433 20.3062401,26.8917446 
				20.7172432,27.3187389 20.5972404,27.4217396 20.2042427,27.0107403 19.9812431,26.8057384 19.7412453,26.5827389 
				19.1242409,26.1207409 			"/>
			<path class="st1" d="M19.2272453,26.0017376l-0.1030045,0.1190033L19.2272453,26.0017376z"/>
			<polygon class="st2" points="20.6662483,22.5632381 20.6662483,20.0842419 20.5632439,19.9132442 20.4262428,19.7412395 
				20.2552452,19.5362453 20.0322456,19.3312435 19.8952446,19.2102413 19.7582436,19.1082439 19.6212425,19.0052395 
				19.4502449,18.9032421 19.2792473,18.818243 19.1072426,18.7502422 18.7652473,18.62924 18.4572411,18.5092449 
				18.1662483,18.3902416 17.8912468,18.2702389 17.6172447,18.1332455 17.3092461,17.9792385 16.6242485,17.6032391 
				16.436245,17.5012417 16.2642479,17.3642406 16.0932426,17.2092419 15.9392424,17.0392437 15.785243,16.8682384 
				15.6312437,16.6972408 15.511241,16.5082455 15.3742476,16.3372402 15.1682463,15.9962435 15.0832472,15.8412371 
				15.0142469,15.721242 14.8772459,15.4652376 14.0382414,16.2512417 14.3292418,16.8502407 14.5692472,17.3642406 
				14.8092451,17.8262386 14.9122419,18.0312405 15.0312452,18.2362423 15.2882414,18.6462383 15.4422407,18.8522396 
				15.5972471,19.0572414 15.7682447,19.2622433 15.9562407,19.4512386 16.0592461,19.5362453 16.1622429,19.6222439 
				16.247242,19.707243 16.3502464,19.7752438 16.5562477,19.8952389 16.7612419,20.0152416 16.9672432,20.1002407 
				17.1892433,20.2032452 17.6692467,20.3912411 17.8912468,20.4942455 18.0972481,20.5802441 18.4572411,20.7852383 
				18.6282463,20.8872433 18.7992439,20.9902401 19.1762428,21.2472439 19.3472481,21.3492413 19.5012474,21.4682446 
				19.7922478,21.6912441 20.0322456,21.9142437 20.2552452,22.1192455 20.5632439,22.4442425 			"/>
			<rect x="20.5969505" y="20.0664425" class="st1" width="0.1539993" height="2.4970016"/>
			<polygon class="st1" points="20.5973473,20.1179409 20.4943428,19.9639416 20.2033424,19.5879421 19.9813423,19.3649426 
				19.7063408,19.1769466 19.3983421,18.9719448 19.0733452,18.8179455 19.141346,18.6809444 19.4843407,18.8519421 
				19.8093452,19.0569439 20.0833397,19.2629452 20.3063469,19.4849453 20.6143456,19.8609447 20.7173424,20.0319424 			"/>
			<polygon class="st1" points="20.7516518,20.0662365 20.7516518,20.0842419 20.7176476,20.0322399 20.5976448,20.1182384 
				20.5976448,20.0662365 			"/>
			<polygon class="st1" points="19.073452,18.8181438 18.4054451,18.578146 17.8574486,18.3391476 16.573452,17.6721478 
				16.6584511,17.552145 17.9264488,18.2021465 18.4734459,18.4411449 19.1414452,18.680151 			"/>
			<path class="st1" d="M19.1417503,18.6804409l-0.0680008,0.1380005L19.1417503,18.6804409z"/>
			<polygon class="st1" points="16.5729485,17.6716366 16.2129478,17.4146404 15.8879423,17.1076412 15.5629454,16.7316418 
				15.3049421,16.3716412 14.945941,15.7736406 14.8089399,15.4996386 14.9289427,15.41364 15.0659437,15.6876421 
				15.4259443,16.2856426 15.681941,16.6286373 15.9899473,16.9876385 16.3159447,17.3126431 16.6759453,17.5526409 			"/>
			<polygon class="st1" points="16.5729485,17.6716366 16.6759453,17.5526409 16.6579475,17.5526409 			"/>
			<polygon class="st1" points="14.9289503,15.5164385 14.8259459,15.3974428 13.986949,16.2014446 14.0899458,16.3204403 			"/>
			<polygon class="st1" points="14.9289503,15.4138384 14.8949461,15.3288393 14.8259459,15.3968401 14.9289503,15.5168428 
				14.8089476,15.4998446 			"/>
			<polygon class="st1" points="14.1066465,16.2175426 14.8776426,17.7915478 14.7406416,17.860548 13.9696455,16.2855434 			"/>
			<polygon class="st1" points="13.9870481,16.2009411 13.9530439,16.2349453 13.9700422,16.2859478 14.1070433,16.217947 
				14.090045,16.3199444 			"/>
			<polygon class="st1" points="14.8776503,17.7918377 15.0826445,18.1858425 15.3396482,18.5958385 15.6486464,19.0058422 
				16.0076485,19.39884 15.8876448,19.5018444 15.5276442,19.1078396 15.2196455,18.6978436 14.9456434,18.2538433 
				14.7406492,17.8598385 			"/>
			<path class="st1" d="M14.7404509,17.8601437l0.1369934-0.0679932L14.7404509,17.8601437z"/>
			<polygon class="st1" points="16.0075493,19.3992367 16.1955452,19.5702419 16.3845482,19.707243 16.7955437,19.9292431 
				17.2235451,20.1182384 17.6865425,20.3232403 17.6175423,20.4602413 17.1545448,20.25424 16.7265434,20.0662441 
				16.3165474,19.844244 16.0935478,19.690237 15.9045439,19.5192394 			"/>
			<polygon class="st1" points="15.8878508,19.5017376 15.9048491,19.519743 16.0078468,19.3987408 			"/>
			<polygon class="st1" points="17.686245,20.3230419 18.1312447,20.5110455 18.4912376,20.7170467 19.2102394,21.1780453 
				19.1422386,21.3150463 18.4222374,20.8530483 18.0622444,20.6480465 17.6172447,20.460043 			"/>
			<path class="st1" d="M17.686245,20.3230419l-0.0690002,0.137001L17.686245,20.3230419z"/>
			<polygon class="st1" points="19.2272453,21.1951427 19.8442421,21.6401501 20.0832405,21.8621502 20.3062401,22.0671444 
				20.7172432,22.5121441 20.5972404,22.6151485 20.2042427,22.1871471 19.9812431,21.9821453 19.7412453,21.7591457 
				19.1242409,21.3151455 			"/>
			<polygon class="st1" points="19.2101479,21.1785412 19.2271461,21.1955471 19.1251411,21.3155422 19.1421471,21.3155422 			"/>
			<polygon class="st1" points="20.5973473,22.6150417 20.7513466,22.786047 20.7513466,22.5630474 20.5973473,22.5630474 
				20.7173424,22.5120449 			"/>
			<polygon class="st2" points="0.4918474,22.5632381 0.4918474,20.0842419 0.6288446,19.9472408 0.9708437,19.6042385 
				1.2108454,19.3992443 1.4678453,19.1762447 1.7588457,18.9552441 2.0498459,18.7502422 2.1698449,18.6802425 
				2.2898438,18.6122417 2.5468438,18.5092449 2.8208458,18.4242382 3.0948441,18.3382397 3.4028466,18.2362423 
				3.5568459,18.1852398 3.7288468,18.1332455 3.8828461,18.0652447 4.053844,17.9972439 4.2248454,17.9112453 
				4.3958468,17.8262386 4.6358447,17.6712399 4.7558475,17.5862408 4.8758464,17.5012417 5.0808444,17.3302441 
				5.183845,17.2272396 5.2698474,17.1412411 5.4578471,16.9362392 5.6128459,16.7482433 5.7658458,16.5602398 
				5.8868442,16.3542385 6.0058475,16.1832409 6.091846,16.0122433 6.2458453,15.721242 6.3658404,15.4652376 7.2568469,16.3202419 
				6.9478412,16.9362392 6.4168429,17.9282436 6.3148456,18.1162395 6.1948466,18.3042431 6.0578456,18.4932384 
				5.9038463,18.6802425 5.7488475,18.8692455 5.5778461,19.0742397 5.2008471,19.4512386 5.0128474,19.6382427 
				4.8068461,19.8102398 4.6018443,19.9632397 4.3958468,20.1002407 4.1738467,20.2202435 3.9508469,20.3392391 
				3.7108452,20.4252453 3.436847,20.5112438 3.2148468,20.5802441 3.0088456,20.6482449 2.9068444,20.6822414 
				2.8208458,20.7162457 2.6668465,20.8012447 2.5128472,20.8872433 2.3418458,20.9902401 1.9818453,21.2472439 
				1.8098444,21.3492413 1.6568445,21.4682446 1.3818468,21.6912441 1.1248468,21.9142437 0.9028467,22.1192455 
				0.6118463,22.4442425 			"/>
			<rect x="0.4229463" y="20.0664425" class="st1" width="0.1539993" height="2.4970016"/>
			<polygon class="st1" points="0.4401468,20.01544 0.9191431,19.553442 1.4171442,19.1254406 1.9991449,18.6984463 
				2.1021454,18.8184414 1.5191454,19.2454433 1.0231432,19.6724453 0.5431436,20.1344433 			"/>
			<polygon class="st1" points="0.4230493,20.0662365 0.4230493,20.0322399 0.4400476,20.0152416 0.5430483,20.1342373 
				0.5770487,20.0662365 			"/>
			<polygon class="st1" points="2.0158494,18.6804409 2.2558472,18.5434475 2.5128472,18.4414425 3.0778458,18.2704449 
				3.6938469,18.065443 4.0198474,17.928442 4.3618464,17.7574444 4.4308467,17.8944454 4.0878482,18.065443 3.7628472,18.2014446 
				3.1118462,18.4244442 2.580848,18.5774441 2.3248475,18.6804409 2.0838463,18.8184414 			"/>
			<polygon class="st1" points="1.9987482,18.6980419 2.0157464,18.6800442 2.0837471,18.8180447 2.1017449,18.8180447 			"/>
			<polygon class="st1" points="4.3620486,17.7576427 4.5850482,17.6206493 4.8070483,17.4486446 5.2180476,17.0906429 
				5.5440478,16.6966457 5.8180461,16.303648 6.1770473,15.6876421 6.2980456,15.4316454 6.4340472,15.4996462 
				6.2980456,15.7736483 5.938045,16.4056454 5.6640468,16.7996502 5.3210483,17.2096462 4.9100451,17.5696468 4.688045,17.739645 
				4.4310451,17.8946438 			"/>
			<path class="st1" d="M4.4308467,17.8943386l-0.0690002-0.1369934L4.4308467,17.8943386z"/>
			<polygon class="st1" points="6.4171481,15.4138384 6.3141437,15.5338411 7.2051425,16.3888454 7.308147,16.2688427 			"/>
			<polygon class="st1" points="6.2975497,15.4314394 6.3315463,15.3454409 6.4175448,15.4134417 6.314548,15.5344439 
				6.4345431,15.4994402 			"/>
			<polygon class="st1" points="7.3249469,16.3543377 6.4859424,17.9453411 6.3489413,17.8763409 7.1879458,16.2863445 			"/>
			<polygon class="st1" points="7.3078494,16.2693386 7.341846,16.3033428 7.3248477,16.3543453 7.1878467,16.2863445 
				7.204845,16.3883419 			"/>
			<polygon class="st1" points="6.4855456,17.9451427 6.2455401,18.3561459 5.9545436,18.7321453 5.6295428,19.1261501 
				5.2525439,19.5191479 5.1505427,19.3991451 5.5095439,19.0231457 5.8355441,18.6301479 6.1265445,18.2541485 
				6.3485446,17.8771496 			"/>
			<path class="st1" d="M6.4855456,17.9451427l-0.137001-0.0679932L6.4855456,17.9451427z"/>
			<polygon class="st1" points="5.2526469,19.5193386 4.8586459,19.8783398 4.4476466,20.1683407 3.9856446,20.3913403 
				3.4716446,20.5803432 3.4026444,20.4433422 3.9166443,20.2543392 4.344646,20.049345 4.7556453,19.7583447 5.1496463,19.3993435 
							"/>
			<path class="st1" d="M5.2526469,19.5193386l-0.1030006-0.1199951L5.2526469,19.5193386z"/>
			<polygon class="st1" points="3.4713471,20.5798397 3.0433457,20.7168407 2.7183449,20.8698406 2.0333436,21.3148403 
				1.9303468,21.1948452 2.6153443,20.750845 2.9743454,20.5798397 3.4033463,20.4428463 			"/>
			<path class="st1" d="M3.4713471,20.5798397l-0.0680008-0.1369934L3.4713471,20.5798397z"/>
			<polygon class="st1" points="2.0329468,21.315237 1.4339441,21.7592373 1.1769441,21.9822445 0.9539446,22.1872387 
				0.5429453,22.6152401 0.4229463,22.5122433 0.8509439,22.0672436 1.0739435,21.8622417 1.3309435,21.6402416 
				1.9299463,21.1952419 			"/>
			<path class="st1" d="M1.9303468,21.1951427l0.1029967,0.1200027L1.9303468,21.1951427z"/>
			<polygon class="st1" points="0.5431474,22.6150417 0.4231447,22.7520428 0.4231447,22.5630474 0.577144,22.5630474 
				0.4231447,22.5120449 			"/>
			<polygon class="st2" points="10.5958509,10.1463366 9.3628492,11.2923403 10.5448484,12.5233431 11.9318495,11.3603411 			"/>
			<polygon class="st0" points="14.7746458,13.105237 15.7846403,12.04424 15.7846403,1.2172443 5.2356448,1.2172443 
				5.2356448,12.04424 6.5206409,13.3102388 7.3246417,11.5652437 6.4346423,10.7102404 6.4346423,2.551244 14.7406416,2.551244 
				14.7406416,10.9322405 14.0036421,11.6332445 14.1066389,11.8052416 14.2096434,12.0102434 14.3466444,12.3002443 
				14.4156446,12.4552431 14.4836454,12.6092424 14.6376448,12.8652391 			"/>
			<polygon class="st0" points="10.49335,17.2439404 11.7773466,16.0299435 10.5443449,14.9349413 9.3113432,16.1149426 			"/>
			<polygon class="st2" points="9.3800459,13.5838366 8.215045,12.4028368 7.9930453,12.6438417 7.8040423,12.8488436 
				7.7190433,12.9688387 7.650043,13.0708437 7.4790454,13.3268404 7.2910419,13.6018419 7.051044,13.9258394 8.1120405,14.9358416 
				8.8150434,14.1998415 			"/>
			<polygon class="st2" points="12.9762449,14.8152361 13.9182386,13.9252367 13.8842421,13.8752413 13.8152418,13.7042437 
				13.7642393,13.6012392 13.6962385,13.4812365 13.61024,13.3612413 13.5242414,13.2242403 13.4382429,13.105237 
				13.3702421,12.9682436 13.2332411,12.7282381 13.1472425,12.5572405 13.1302443,12.4892397 11.8292418,13.7382402 
				12.0342436,13.9432421 12.2232389,14.131238 12.3942442,14.2852373 12.5652418,14.4212389 12.7532377,14.6102419 			"/>
			<polygon class="st2" points="12.9250441,10.1970415 11.6750441,9.0680437 12.2910414,8.4350481 12.2910414,4.8430452 
				8.7800398,4.8430452 8.7800398,8.3490419 9.4140425,8.9830446 8.1980391,10.1970415 7.6330447,9.6330462 7.6330447,3.6630452 
				13.4730406,3.6630452 13.4730406,9.6500444 			"/>
			<polygon class="st2" points="10.4762449,7.9392366 11.0922422,7.16924 11.0922422,6.0412416 9.9792433,6.0412416 
				9.9792433,7.2382402 			"/>
			<polygon class="st3" points="9.3629484,11.2918367 12.2909422,8.4358416 12.2909422,4.8438387 8.7799482,4.8438387 
				8.7799482,8.3668413 8.9519453,8.5038424 9.1569471,8.7088442 9.4139433,8.9658403 10.4759474,7.9388399 9.9789457,7.2378435 
				9.9789457,6.0408373 11.0919447,6.0408373 11.0919447,7.1698427 11.0069456,7.2898378 10.7669477,7.5798388 
				10.6129484,7.7688417 10.4419432,7.9738436 10.2539473,8.1788378 10.047946,8.3668413 9.8079481,8.5718431 9.533946,8.8458376 
				8.9179411,9.4618425 8.2159452,10.1968431 			"/>
			<polygon class="st1" points="9.3117476,11.2410402 12.2397413,8.3840456 12.3427458,8.5040407 9.4147444,11.3600435 			"/>
			<rect x="12.222949" y="4.843442" class="st1" width="0.1539993" height="3.5920029"/>
			<polygon class="st1" points="12.3429441,8.5037355 12.3769407,8.4867373 12.3769407,8.4357424 12.2229414,8.4357424 
				12.2399397,8.3837404 			"/>
			<rect x="8.7809477" y="4.7754412" class="st1" width="3.5110016" height="0.1529999"/>
			<polygon class="st1" points="12.3771467,4.8435411 12.3771467,4.775548 12.2911406,4.775548 12.2911406,4.9285479 
				12.2231398,4.8435411 			"/>
			<rect x="8.7119474" y="4.843442" class="st1" width="0.1539993" height="3.5059967"/>
			<polygon class="st1" points="8.7804441,4.7752428 8.7124434,4.7752428 8.7124434,4.8432436 8.8664427,4.8432436 
				8.7804441,4.9282503 			"/>
			<polygon class="st1" points="8.8322477,8.2986422 9.0032454,8.4526491 9.4652433,8.9136477 9.363246,9.0336428 
				8.9002409,8.5716448 8.7292433,8.4186449 			"/>
			<polygon class="st1" points="8.7121458,8.3494387 8.7121458,8.4184389 8.7291441,8.4184389 8.8321409,8.2984438 
				8.8661451,8.3494387 			"/>
			<polygon class="st1" points="9.3629484,8.9138384 9.4659452,9.0338411 10.5279417,8.0078402 10.4249449,7.8888445 			"/>
			<polygon class="st1" points="9.3629484,9.0339403 9.4139433,9.0859423 9.4659452,9.0339403 9.3629484,8.9139452 
				9.4659452,8.9139452 			"/>
			<polygon class="st1" points="10.4074507,7.9910402 10.5274458,7.8880434 10.0314436,7.1860476 9.910449,7.2900438 			"/>
			<polygon class="st1" points="10.527545,8.0076418 10.5785398,7.9566469 10.527545,7.8886461 10.4075422,7.9906435 
				10.4245405,7.8886461 			"/>
			<rect x="9.9109449" y="6.0404406" class="st1" width="0.1539993" height="1.1969986"/>
			<polygon class="st1" points="9.9108458,7.2898378 9.9108458,7.2378435 10.0648451,7.2378435 10.0308409,7.1858416 			"/>
			<rect x="9.9789457" y="5.9724398" class="st1" width="1.112999" height="0.1539993"/>
			<polygon class="st1" points="9.9108458,6.0408373 9.9108458,5.9728441 9.9788389,5.9728441 9.9788389,6.1268435 
				10.0648451,6.0408373 			"/>
			<rect x="11.0239439" y="6.0404406" class="st1" width="0.1539993" height="1.1289978"/>
			<polygon class="st1" points="11.0924482,5.9724398 11.1784468,5.9724398 11.1784468,6.0404406 11.0244474,6.0404406 
				11.0924482,6.1264467 			"/>
			<polygon class="st1" points="11.1437483,7.22054 10.8187437,7.6315432 10.4937468,8.0255404 10.0997419,8.4185457 
				9.9967451,8.298543 10.3727446,7.9225435 10.698741,7.5295458 11.0237455,7.1175432 			"/>
			<polygon class="st1" points="11.1784468,7.1697359 11.1784468,7.1867418 11.1434431,7.2207384 11.0244398,7.1177416 
				11.0244398,7.1697359 			"/>
			<polygon class="st1" points="10.0993452,8.4187365 9.5853376,8.9137392 8.9693403,9.5297365 8.2493391,10.2657366 
				8.1473417,10.1467409 8.8663435,9.4097414 9.4823408,8.7947435 9.9963408,8.2987413 			"/>
			<path class="st1" d="M10.0993452,8.4187365L9.9963408,8.2987413L10.0993452,8.4187365z"/>
			<polygon class="st1" points="8.2497511,10.1463366 8.1467466,10.2653399 9.3117476,11.3603411 9.4147444,11.2413378 			"/>
			<polygon class="st1" points="8.147151,10.1463366 8.0781507,10.2143373 8.147151,10.2653399 8.2501478,10.1463366 
				8.2501478,10.2653399 			"/>
			<polygon class="st1" points="9.3117476,11.3601427 9.3627424,11.4121447 9.4147444,11.3601427 9.3117476,11.241147 
				9.4147444,11.241147 			"/>
			<polygon class="st3" points="10.0480452,12.9509401 9.3800383,13.6009417 8.250041,14.7299471 8.1470442,14.8489428 
				8.0440397,14.969945 7.8560443,15.2089434 7.702045,15.4479418 7.5650439,15.6869402 7.3250384,16.1669445 7.188045,16.4239483 
				7.051044,16.679945 6.7940402,17.1929455 6.5540423,17.6549435 6.4340396,17.8939419 6.2980456,18.115942 6.1600451,18.3389416 
				6.0060458,18.5439434 5.8350444,18.7659435 5.6640429,18.9719448 5.4920421,19.1599483 5.3210444,19.330946 5.150043,19.4849453 
				4.9960437,19.6219463 4.8410449,19.740942 4.688045,19.8609447 4.4310451,20.0499477 4.2420421,20.1689434 4.0540423,20.2709484 
				4.1220431,22.528944 4.2080455,22.4949474 4.294044,22.4439449 4.3790431,22.391943 4.4650455,22.3419476 4.6530452,22.2219448 
				4.8590426,22.0849438 5.0640445,21.9139462 5.287044,21.7429409 5.5090442,21.5379467 5.7320437,21.3319454 5.8350444,21.228941 
				5.938045,21.1099453 6.1260448,20.8879452 6.2120395,20.766943 6.2980456,20.6479473 6.4510455,20.3909435 6.5890384,20.1349468 
				6.7080417,19.8789425 6.9650455,19.3479443 7.2220416,18.7839413 7.3590426,18.4929409 7.5300403,18.2019482 
				7.702045,17.8939419 7.9070392,17.6029415 8.1300383,17.2959423 8.2670393,17.1409435 8.4040403,16.9879436 
				8.6100416,16.7819424 9.0200377,16.3889446 10.2360411,15.2089434 13.1310377,12.4889421 11.9320402,11.3599443 			"/>
			<polygon class="st1" points="10.0993452,13.0027361 8.3013411,14.7987413 8.1983442,14.6787386 9.9963408,12.882741 			"/>
			<polygon class="st1" points="8.3009443,14.7810411 7.90694,15.2600451 7.6329379,15.7050447 7.118938,16.7140484 
				6.982944,16.6450481 7.4959445,15.6360445 7.7869372,15.1570482 8.1809416,14.6780443 			"/>
			<polygon class="st1" points="8.198451,14.6785402 8.1814451,14.6785402 8.3014479,14.7815447 8.3014479,14.798543 			"/>
			<polygon class="st1" points="7.11935,16.7136364 6.6053424,17.689642 6.366344,18.1506405 6.0573497,18.5956402 
				5.9373469,18.4926434 6.2283435,18.0826397 6.468349,17.6206417 6.9823489,16.6456432 			"/>
			<path class="st1" d="M7.11935,16.7136364l-0.137001-0.0679932L7.11935,16.7136364z"/>
			<polygon class="st1" points="6.0578494,18.595541 5.7148471,19.0235424 5.372848,19.3825436 5.0468478,19.6905422 
				4.7388492,19.9295483 4.2938457,20.2375469 4.0878482,20.3395443 4.0028491,20.220541 4.1908488,20.1175442 4.6358485,19.810545 
				4.9448466,19.5705471 5.2698474,19.2625484 5.5958476,18.9205456 5.9378467,18.4925442 			"/>
			<path class="st1" d="M6.0578494,18.595541l-0.1200027-0.1029968L6.0578494,18.595541z"/>
			<polygon class="st1" points="4.1222491,20.2713375 3.9682457,20.2713375 4.0372462,22.5293407 4.1912456,22.5293407 			"/>
			<polygon class="st1" points="4.0026469,20.220541 3.9686463,20.2375469 3.9686463,20.2715435 4.1226459,20.2715435 
				4.087646,20.3395443 			"/>
			<polygon class="st1" points="4.0880466,22.4607372 4.4310451,22.2737408 4.8070445,22.0167446 5.2350459,21.6907406 
				5.6810451,21.2807446 5.7830462,21.3997402 5.3380466,21.8117428 4.9100451,22.1357403 4.4990458,22.4097424 
				4.1560435,22.5977383 			"/>
			<polygon class="st1" points="4.0368495,22.5291424 4.0368495,22.6661434 4.1568484,22.5971432 4.0878482,22.4611492 
				4.1908488,22.5291424 			"/>
			<polygon class="st1" points="5.6808467,21.2810421 5.8868442,21.0580425 6.0578456,20.8190441 6.3828464,20.3400478 
				6.6398425,19.8440456 6.8798404,19.3140469 7.1538424,18.7500439 7.4448428,18.1510448 7.83884,17.5520458 8.0778456,17.2440472 
				8.35184,16.9360485 8.4548445,17.0560436 8.1808424,17.3640423 7.9588428,17.6550426 7.5648456,18.2540493 7.2908435,18.8180447 
				7.0168414,19.3830471 6.7768435,19.9130459 6.5028415,20.4430447 6.1778445,20.9220486 5.9888453,21.1780453 
				5.7838435,21.4000454 			"/>
			<path class="st1" d="M5.7833476,21.4002438L5.680347,21.2812481L5.7833476,21.4002438z"/>
			<polygon class="st1" points="8.3522444,16.9363384 10.1852369,15.1573381 13.0792418,12.438344 13.1822386,12.5573397 
				10.2882414,15.2773409 8.4552412,17.0563412 			"/>
			<path class="st1" d="M8.3522444,16.9363384l0.1029968,0.1200027L8.3522444,16.9363384z"/>
			<polygon class="st1" points="13.0792494,12.5574389 13.1822462,12.4384432 11.9832487,11.3094454 11.8802443,11.428441 			"/>
			<polygon class="st1" points="13.1818495,12.5574389 13.2508421,12.4894457 13.1818495,12.4384432 13.078845,12.5574389 
				13.078845,12.4384432 			"/>
			<polygon class="st1" points="11.9831495,11.4285402 11.8801451,11.3095446 9.9971495,12.8825426 10.0991468,13.0025454 			"/>
			<polygon class="st1" points="11.9831495,11.3093386 11.932147,11.2573442 11.8801451,11.3093386 11.9831495,11.4283419 
				11.8801451,11.4283419 			"/>
			<path class="st1" d="M9.9967451,12.8826418l0.1029968,0.1200027L9.9967451,12.8826418z"/>
			<polygon class="st3" points="10.5958509,10.1463366 10.9038496,10.5043383 10.9898481,10.5903368 11.0748472,10.6753435 
				11.3148451,10.8983431 11.9318495,11.4283419 12.2568464,11.7193422 12.4108458,11.874341 12.5828505,12.0103426 
				12.8738508,12.3183413 12.9928465,12.4723406 13.1138487,12.6253405 13.3358488,12.9333391 13.5758467,13.310338 
				13.8328505,13.7043428 14.0728483,14.0973406 14.5348463,14.8833437 14.9118452,15.534337 15.2538481,16.0813427 
				15.3398466,16.2173443 15.4428511,16.3373394 15.6138487,16.6113415 15.802844,16.8503399 15.9908476,17.0733395 
				16.1618462,17.261343 16.2468452,17.3303432 16.3328514,17.398344 16.4868507,17.5183392 16.6578484,17.6213436 
				16.8128471,17.7063427 16.9498482,17.7923412 17.15485,17.8943386 17.2238503,17.9283428 17.2238503,15.3793383 
				17.1378517,15.3793383 17.0348473,15.3453417 16.9148445,15.3113375 16.7618446,15.2433367 16.6578484,15.2083406 
				16.5728493,15.1573381 16.3848457,15.0203371 16.2818489,14.9523439 16.1788521,14.8673372 15.9728498,14.6613436 
				15.767848,14.4563417 15.5798445,14.2343416 15.3738508,14.011342 15.1858473,13.7723436 15.0138502,13.5153399 
				14.9288511,13.3953371 14.842845,13.2583437 14.6888456,12.9853411 14.380847,12.4033403 14.0728483,11.8053408 
				13.781848,11.2413378 13.5588484,10.8303423 13.5078459,10.7453432 13.4388456,10.6413393 13.2508497,10.4193392 
				13.0108442,10.1803408 12.7368498,9.923337 12.4458494,9.6673403 12.1718473,9.4273424 11.9148436,9.2223406 
				11.691844,9.0683413 			"/>
			
				<rect x="10.6621351" y="10.088872" transform="matrix(0.7588035 -0.6513196 0.6513196 0.7588035 -4.1344414 9.4865685)" class="st1" width="0.1585272" height="0.4733426"/>
			<polygon class="st1" points="10.9557447,10.4539385 11.3667402,10.8479433 11.9827375,11.3599443 12.6167402,11.9589434 
				13.1647444,12.5579424 13.0447416,12.6599398 12.5137434,12.0789385 11.8807402,11.4799395 11.2637434,10.966939 
				10.8527403,10.5729418 			"/>
			<polygon class="st1" points="10.8356504,10.5564394 10.8526487,10.5734453 10.9556456,10.4534426 			"/>
			<polygon class="st1" points="13.1647444,12.5574389 13.6437407,13.2584429 14.1407423,14.0634432 14.9797392,15.4994402 
				14.8427382,15.5684404 14.0037413,14.131444 13.5077391,13.3274431 13.0447416,12.6604433 			"/>
			<path class="st1" d="M13.1647444,12.5574389l-0.1200027,0.1030045L13.1647444,12.5574389z"/>
			<polygon class="st1" points="14.9801512,15.4998369 15.3231459,16.0298443 15.6651487,16.5608425 16.0421486,17.021841 
				16.2131462,17.2098446 16.3841515,17.346838 16.2821465,17.4668407 16.1101494,17.3298397 15.9221449,17.1248379 
				15.545146,16.6628399 15.1861448,16.0988445 14.8431501,15.5678377 			"/>
			<path class="st1" d="M14.8429441,15.5681429l0.1369934-0.0679932L14.8429441,15.5681429z"/>
			<polygon class="st1" points="16.384449,17.3464413 16.6924477,17.5524426 16.9844475,17.7054424 17.2584419,17.8604488 
				17.1894417,17.9964428 16.9154472,17.8424435 16.6244469,17.6894436 16.2814445,17.466444 			"/>
			<path class="st1" d="M16.2819481,17.4666424l0.1029968-0.1199951L16.2819481,17.4666424z"/>
			<rect x="17.1549492" y="15.3794374" class="st1" width="0.1539993" height="2.5490036"/>
			<polygon class="st1" points="17.1891518,17.9968395 17.3091469,18.047842 17.3091469,17.9288464 17.1551476,17.9288464 
				17.2581444,17.8598461 			"/>
			<polygon class="st1" points="17.2067451,15.448041 17.1037407,15.4310427 16.8807411,15.3800478 16.52174,15.2250414 
				16.1277428,14.9350481 16.2297401,14.8150454 16.606739,15.1060457 16.9497414,15.2430468 17.1547432,15.2950411 
				17.2407417,15.3110476 			"/>
			<polygon class="st1" points="17.3092461,15.3796358 17.3092461,15.3286409 17.2412453,15.3116426 17.2062416,15.4476366 
				17.1552391,15.3796358 			"/>
			<polygon class="st1" points="16.1276512,14.935338 15.7166471,14.5243425 15.32265,14.063344 14.9456434,13.5673418 
				14.6206465,13.037343 14.7406492,12.9513445 15.0656462,13.4633455 15.4256468,13.9593401 15.819644,14.4053392 
				16.230648,14.8153429 			"/>
			<path class="st1" d="M16.1276512,14.935338l0.1029968-0.1199951L16.1276512,14.935338z"/>
			<polygon class="st1" points="14.6203489,13.0369387 14.004344,11.8399401 13.490344,10.8819399 13.6103468,10.7959414 
				14.1233473,11.7539415 14.740344,12.9509401 			"/>
			<path class="st1" d="M14.6203489,13.0369387l0.1199951-0.0859985L14.6203489,13.0369387z"/>
			<polygon class="st1" points="13.4904509,10.8816423 13.1984434,10.4876451 12.6854506,9.9746447 12.1204481,9.4786425 
				11.6234465,9.1366472 11.7264433,9.0176439 12.2224455,9.3756456 12.7884474,9.855649 13.3024473,10.3676424 
				13.610446,10.7786455 			"/>
			<polygon class="st1" points="13.6100492,10.795743 13.6100492,10.7787447 13.4900465,10.8817492 			"/>
			<polygon class="st1" points="11.7262449,9.1365404 11.6232405,9.0175447 10.5442381,10.0945406 10.6472425,10.2145433 			"/>
			<polygon class="st1" points="11.7262449,9.0173388 11.6752424,8.9653444 11.6232405,9.0173388 11.7262449,9.136342 
				11.6232405,9.136342 			"/>
			<polygon class="st1" points="10.5446501,10.0945406 10.4936476,10.1465425 10.5276442,10.1975451 10.6476469,10.0945406 
				10.6476469,10.2145433 			"/>
			<polygon class="st3" points="11.9318495,18.4754391 11.7948484,18.3724422 11.5888472,18.2024441 11.3148451,17.9454403 
				10.9728422,17.6374416 9.2428465,16.0124416 6.8458438,13.7384386 6.1948466,15.329442 9.0548429,18.065443 
				10.1678419,19.1254406 10.5278425,19.4674435 10.7158461,19.6724453 			"/>
			<polygon class="st1" points="11.8634443,18.5271435 10.921443,17.689146 9.1914396,16.0811443 6.7944446,13.8061495 
				6.8964419,13.6861467 9.2944441,15.9621477 11.0244398,17.5691509 11.9664412,18.4241467 			"/>
			<polygon class="st1" points="6.9137454,13.7722368 6.7767444,13.7042437 6.1257434,15.29424 6.2627444,15.3632402 			"/>
			<polygon class="st1" points="6.8966479,13.6863375 6.8116412,13.6183443 6.7766452,13.7043428 6.9136462,13.7723436 
				6.7936435,13.8063402 			"/>
			<polygon class="st1" points="6.2458453,15.2771425 9.1058378,18.0131435 10.7668409,19.6221447 10.6638441,19.741148 
				9.002841,18.1331463 6.1428447,15.3971453 			"/>
			<polygon class="st1" points="6.1261477,15.2947359 6.0921474,15.3627367 6.143146,15.3977404 6.2461429,15.2767382 
				6.2631412,15.3627367 			"/>
			<polygon class="st1" points="10.6642485,19.6218395 10.7672453,19.7408428 11.9662428,18.5438442 11.863246,18.4248409 			"/>
			<polygon class="st1" points="10.6642485,19.7410412 10.7162428,19.7930431 10.7672453,19.7410412 10.6642485,19.6220455 
				10.7672453,19.6220455 			"/>
			<polygon class="st1" points="11.9660444,18.5437374 12.0340376,18.4757442 11.9660444,18.4247417 11.86304,18.5267391 
				11.86304,18.4247417 			"/>
			<polygon class="st3" points="10.4762449,19.4168377 10.9212446,19.8788433 11.6062422,20.5458431 12.3262434,21.2808437 
				12.6682386,21.622839 12.9422407,21.9308376 13.1472425,22.1528378 13.3362379,22.3928432 13.5072432,22.6148434 
				13.6612425,22.8378429 13.7982435,23.0598431 13.9352446,23.2658443 14.0552397,23.486845 14.1752424,23.6758404 
				14.3632383,24.0688381 14.5522413,24.410841 14.7062407,24.7358379 14.7912397,24.8898449 14.86024,25.0268383 
				15.0312376,25.2828426 15.2202406,25.5398388 15.4082441,25.7788448 15.5972395,26.0018444 15.8022413,26.2068386 
				15.9902449,26.3958416 16.1622429,26.5658398 16.3332405,26.6858425 16.4872398,26.8058376 16.6582451,26.9078426 
				16.8122444,27.0108395 16.9492455,27.0788403 17.1552391,27.1818409 17.2242393,27.2158375 17.2582436,24.9408398 
				17.1382408,24.8898449 17.0012398,24.8388424 16.8302422,24.7528439 16.6412392,24.6338406 16.4352455,24.4968395 
				16.2302437,24.3248425 16.1442451,24.2398434 16.0422401,24.1378384 15.8532438,23.9328442 15.6652403,23.7438412 
				15.4762449,23.5388393 15.3052397,23.3338451 15.1342421,23.1108379 14.9802427,22.8718395 14.9122419,22.7518444 
				14.8262434,22.5978451 14.7572432,22.4438381 14.6892424,22.2898388 14.4322386,21.6748409 14.2782393,21.3658428 
				14.1232405,21.0588436 13.9702406,20.7678432 13.8322401,20.5118389 13.6962385,20.2888393 13.6272383,20.2028408 
				13.5592375,20.1178417 13.3872404,19.9128399 13.2162428,19.672842 13.0282393,19.4338436 12.822238,19.1768398 
				12.7022429,19.0578442 12.5822401,18.9378414 12.4452391,18.8008404 12.2912397,18.6808453 12.1372404,18.561842 
				11.9662428,18.4408398 11.7772398,18.3218441 11.572238,18.2198391 			"/>
			<polygon class="st1" points="10.527545,19.3650417 10.9725447,19.8270473 11.6405439,20.4940472 12.3775434,21.2290478 
				12.9935408,21.8620434 12.873538,21.9650478 12.274539,21.3490429 11.5375395,20.6140423 10.8695402,19.9470425 
				10.4245405,19.4850445 			"/>
			<polygon class="st1" points="12.99335,21.8621426 13.3873472,22.3411465 13.7133436,22.7861462 14.004344,23.2301464 
				14.2263441,23.6411495 14.603343,24.3771496 14.929347,24.9931469 14.7913465,25.0611477 14.4663496,24.4451427 
				14.0893431,23.7101498 13.8673429,23.2991467 13.5933485,22.8881435 13.2673445,22.4441433 12.8733473,21.965147 			"/>
			<path class="st1" d="M12.99335,21.8621426l-0.1200027,0.1030045L12.99335,21.8621426z"/>
			<polygon class="st1" points="14.9118452,24.9754391 15.2708387,25.4714413 15.6478376,25.9504452 16.0248451,26.3434429 
				16.3848457,26.6344433 16.2818413,26.754446 15.9218397,26.4634457 15.5278425,26.0524426 15.1518431,25.5744457 
				14.7918425,25.0784435 			"/>
			<polygon class="st1" points="14.7917509,25.0613384 14.7917509,25.0783443 14.911746,24.9753399 14.9287443,24.9933453 			"/>
			<polygon class="st1" points="16.384449,26.6345425 16.6924477,26.8395443 16.9844475,27.0105457 17.2584419,27.147543 
				17.1894417,27.284544 16.9154472,27.147543 16.6244469,26.9765453 16.2814445,26.7545452 			"/>
			<path class="st1" d="M16.2819481,26.7546368l0.1029968-0.1199951L16.2819481,26.7546368z"/>
			<polygon class="st1" points="17.1378517,27.2156391 17.291851,27.2156391 17.3258476,24.9416409 17.1718483,24.9416409 			"/>
			<polygon class="st1" points="17.2238503,25.0095425 16.7788429,24.8045483 16.3848457,24.5655499 16.1788445,24.3935452 
				15.9908476,24.2055492 16.0938454,24.0855465 16.2818489,24.2745495 16.4868431,24.4455471 16.8638496,24.6845455 
				17.2918434,24.8725491 			"/>
			<polygon class="st1" points="17.3263512,24.9412365 17.3263512,24.8892422 17.292347,24.8732433 17.2233467,25.0092373 
				17.1723442,24.9412365 			"/>
			<polygon class="st1" points="15.9904509,24.2058392 15.6144438,23.7948437 15.2544508,23.38484 15.0654478,23.1618404 
				14.9114485,22.922842 14.7574492,22.6318417 14.6204481,22.323843 14.7574492,22.2558422 14.8944502,22.5628414 
				15.0314436,22.8378429 15.1854506,23.0598431 15.3574476,23.2818432 15.7164488,23.6758404 16.0934486,24.085844 			"/>
			<path class="st1" d="M15.9904509,24.2058392l0.1029978-0.1199951L15.9904509,24.2058392z"/>
			<polygon class="st1" points="14.6203489,22.3240414 14.0553465,21.0930462 13.7643461,20.562048 13.490344,20.1690426 
				13.6103468,20.0660458 13.8843489,20.4770489 14.1923475,21.0240459 14.7573423,22.2560482 			"/>
			<path class="st1" d="M14.7575483,22.2556438l-0.137001,0.0680008L14.7575483,22.2556438z"/>
			<polygon class="st1" points="13.4904509,20.1687374 13.1474485,19.7247448 12.7704496,19.2287426 12.5314436,18.9887447 
				12.2404509,18.7497387 11.9144468,18.5097408 11.5204496,18.2707424 11.6064482,18.1507397 12.0004454,18.3907375 
				12.3434477,18.6297436 12.6344481,18.868742 12.8734465,19.1257381 13.2674437,19.6217403 13.610446,20.0657406 			"/>
			<path class="st1" d="M13.6100492,20.0662365l-0.1200027,0.1030045L13.6100492,20.0662365z"/>
			<polygon class="st1" points="11.623744,18.2537365 11.5037413,18.1507397 10.4077406,19.3647366 10.5277433,19.467741 			"/>
			<polygon class="st1" points="11.6061506,18.1511364 11.5381498,18.1161404 11.5031462,18.1511364 11.6241484,18.2541409 
				11.5211439,18.2701397 			"/>
			<polygon class="st1" points="10.4074507,19.3650417 10.3564482,19.4170437 10.424449,19.4850445 10.5274458,19.3650417 
				10.5274458,19.4680462 			"/>
			<polygon class="st3" points="7.3249469,11.5652361 7.2049441,11.8222399 7.0509448,12.0952425 6.9139438,12.3522387 
				6.793941,12.6092424 6.5889468,13.1222429 6.5369449,13.2242403 6.4689441,13.344243 6.4339404,13.4132433 6.4169421,13.4632387 
				6.3489413,13.5672426 6.2629428,13.66924 6.1949458,13.7722368 6.1089435,13.8752413 6.0059466,13.9602404 5.4749446,14.4052401 
				4.8249469,14.9182405 4.053947,15.5342379 4.121944,17.9452419 4.2939448,17.8602428 4.4819446,17.7572384 4.7049441,17.6212444 
				4.9279437,17.4492397 5.0299449,17.3462429 5.1499438,17.2442379 5.2699466,17.1412411 5.3899455,17.0222378 
				5.5099444,16.8842373 5.6299434,16.7482433 5.7489467,16.594244 5.8689456,16.4232388 6.0059466,16.2172375 
				6.0579448,16.1152401 6.1259456,15.9962435 6.2289462,15.7732363 6.331943,15.5502367 6.5199466,15.0882387 
				6.7249408,14.5922365 6.845943,14.3532381 6.9649463,14.0802431 7.1019397,13.8232393 7.2739444,13.5492373 
				7.4619403,13.2762423 7.6849399,13.0022402 7.9249454,12.7112398 8.0609388,12.5572405 8.2159452,12.4032412 
				8.2329435,12.4032412 8.2329435,12.3862429 8.2159452,12.3352404 8.1299391,12.2322435 8.0609388,12.1642427 
				7.9929461,12.0952425 7.8219409,11.9422426 7.4789462,11.6852388 			"/>
			<polygon class="st1" points="7.3932452,11.5994387 7.1192431,12.1294451 6.9822421,12.0614443 7.2562442,11.5314455 			"/>
			<polygon class="st1" points="7.11935,12.1296358 6.8623462,12.6436434 6.6573443,13.1396379 6.4173465,13.6016359 
				6.2453494,13.8226366 6.0573497,14.0276384 5.954349,13.9086428 6.1263499,13.7206392 6.2803454,13.5326433 
				6.5203433,13.0706377 6.7253451,12.5746431 6.9823489,12.0616426 			"/>
			<path class="st1" d="M6.9826465,12.0613375l0.1369934,0.0680008L6.9826465,12.0613375z"/>
			<polygon class="st1" points="6.0578494,14.028142 4.8758464,14.9861422 4.1048465,15.6021471 4.0028491,15.4821444 
				4.7728457,14.8671465 5.9548488,13.9091463 			"/>
			<path class="st1" d="M6.0578494,14.028142l-0.1030006-0.1189957L6.0578494,14.028142z"/>
			<polygon class="st1" points="4.1222491,15.5339403 3.9682457,15.5339403 4.0372462,17.9449444 4.1912456,17.9449444 			"/>
			<polygon class="st1" points="4.0026469,15.4822359 3.9686463,15.5162401 3.9686463,15.5342379 4.1226459,15.5342379 
				4.1056437,15.6022387 			"/>
			<polygon class="st1" points="4.0880466,17.8767376 4.4480433,17.6897411 4.8590465,17.3977413 5.3380466,16.9527416 
				5.5780444,16.6967449 5.8000445,16.3717403 5.9210429,16.4747448 5.6810451,16.8157406 5.4410434,17.0727444 
				4.9620433,17.5187435 4.5160441,17.8257427 4.1560435,18.0137386 			"/>
			<polygon class="st1" points="4.0368495,17.9451427 4.0368495,18.0831432 4.1568484,18.0131435 4.0878482,17.8771496 
				4.1908488,17.9451427 			"/>
			<polygon class="st1" points="5.8004489,16.3718395 6.0574489,15.9618425 6.2624469,15.5168428 6.6564441,14.5588427 
				6.8964419,14.0458422 7.2044482,13.4978456 7.6154437,12.950841 7.8724475,12.6598406 8.1644468,12.3518419 
				8.2664442,12.4728441 7.9754443,12.7798433 7.7364459,13.0538454 7.3244433,13.6008425 7.0164447,14.1318407 
				6.7944446,14.6268435 6.4004474,15.5848436 6.1774478,16.0468426 5.9204478,16.474844 			"/>
			<path class="st1" d="M5.9206462,16.4744396l-0.1200027-0.1029968L5.9206462,16.4744396z"/>
			<polygon class="st1" points="8.147151,12.403142 8.147151,12.3691454 8.0781507,12.3001451 7.7701449,11.9931459 
				7.2731509,11.6331453 7.3761477,11.514142 7.8731494,11.8901491 8.1811476,12.1811495 8.2841444,12.3001451 8.2841444,12.403142 
							"/>
			<polygon class="st1" points="8.2667494,12.4724398 8.2837477,12.454442 8.2837477,12.4034472 8.1467466,12.4034472 
				8.1637449,12.3524446 			"/>
			<polygon class="st1" points="7.3761477,11.5144396 7.291141,11.4464464 7.256145,11.5314455 7.393146,11.5994463 
				7.2731433,11.6334429 			"/>
			<polygon class="st3" points="12.9762449,14.8152361 11.6062422,16.1492443 10.6132383,17.1072445 10.0482435,17.655241 
				9.8422422,17.8422375 9.6542387,18.0472393 9.4482374,18.2702389 9.2602415,18.4932384 8.8492384,18.9712429 
				8.6262388,19.2112408 8.4042387,19.4512386 8.1812391,19.6722393 7.9762454,19.9132442 7.7702441,20.1342373 
				7.5992389,20.3742428 7.4272418,20.5962429 7.2902408,20.8532391 7.1532397,21.1102428 7.0512424,21.3832378 
				6.9482455,21.7092419 6.8282428,21.9992428 6.7252383,22.2392406 6.6222415,22.4442425 6.5022388,22.6492443 
				6.3662448,22.8372402 6.1942439,23.0432415 6.0062442,23.2652416 5.6122432,23.6752377 5.4412456,23.8462429 
				5.2522426,24.0172405 4.9272456,24.3252392 4.6362453,24.565237 4.3962436,24.7532406 4.2252421,24.8732433 
				4.0542445,24.9752407 4.1222453,27.2502384 4.2932429,27.1652393 4.4822421,27.0622387 4.567245,27.0102367 
				4.6702456,26.9422436 4.8932452,26.8052425 5.1332431,26.6342373 5.3902431,26.4292431 5.6462436,26.190237 
				5.9372439,25.8992367 6.0232425,25.7962399 6.1262431,25.6942425 6.2112384,25.5742397 6.2802386,25.4712429 
				6.3662448,25.3352413 6.4342456,25.2142391 6.5882449,24.9582424 6.7252383,24.6842403 6.8622394,24.39324 7.1192431,23.8122387 
				7.2562442,23.50424 7.3932452,23.2132397 7.5302386,22.9222393 7.6842456,22.6492443 7.8382449,22.3922405 8.0102415,22.1352444 
				8.1122389,22.0162411 8.198245,21.8962383 8.3012419,21.794241 8.4042387,21.6912441 14.0042448,16.2352428 			"/>
			<polygon class="st1" points="13.0280485,14.8836412 10.0990477,17.7236462 9.9970427,17.6036434 12.9250441,14.7646456 			"/>
			<polygon class="st1" points="10.0993452,17.7234402 9.7053404,18.0994473 9.3113432,18.5434475 8.4553404,19.5014477 
				8.3353376,19.3994427 9.1913404,18.4414425 9.5853376,17.9964428 9.9963408,17.6034451 			"/>
			<path class="st1" d="M9.9967451,17.6033382l0.1029968,0.1200027L9.9967451,17.6033382z"/>
			<polygon class="st1" points="8.4552488,19.5017376 8.0272474,19.9467449 7.650249,20.4077435 7.3592486,20.8877392 
				7.1192431,21.417738 6.9822421,21.3497448 7.2222476,20.8187389 7.5302463,20.3057384 7.9072452,19.8447399 
				8.3352461,19.3987408 			"/>
			<path class="st1" d="M8.4552488,19.5017376l-0.1200027-0.1029968L8.4552488,19.5017376z"/>
			<polygon class="st1" points="7.11935,21.417738 6.8963428,22.0327435 6.7943454,22.2727413 6.6913486,22.4787426 
				6.4173465,22.8887386 6.0573497,23.2997417 5.9373469,23.1957455 6.2973437,22.7857418 6.5543475,22.4097424 
				6.6573443,22.2047405 6.7603488,21.9647427 6.9823489,21.3497448 			"/>
			<path class="st1" d="M6.9826465,21.3494396l0.1369934,0.0680008L6.9826465,21.3494396z"/>
			<polygon class="st1" points="6.0578494,23.2996426 5.6638484,23.7266445 5.3038478,24.0856457 4.6878467,24.6336498 
				4.2598491,24.9416485 4.1048465,25.0436459 4.0028491,24.9236431 4.1568484,24.8206463 4.584846,24.5136471 5.2018466,23.96665 
				5.5608478,23.6076488 5.9378467,23.1956463 			"/>
			<path class="st1" d="M6.0578494,23.2996426l-0.1200027-0.1039963L6.0578494,23.2996426z"/>
			<polygon class="st1" points="4.1222491,24.9754391 3.9682457,24.9754391 4.0372462,27.2334423 4.1912456,27.2334423 			"/>
			<polygon class="st1" points="4.0026469,24.9236431 3.9686463,24.9416485 3.9686463,24.9756451 4.1226459,24.9756451 
				4.1056437,25.0436459 			"/>
			<polygon class="st1" points="4.0880466,27.1648388 4.4310451,26.9938412 4.8410449,26.7548428 5.3210444,26.3778439 
				5.8860431,25.8478451 5.9890437,25.9678402 5.4240451,26.497839 4.9440455,26.8738461 4.4990458,27.1308422 
				4.1560435,27.3018398 			"/>
			<polygon class="st1" points="5.8864474,25.8474407 6.0404468,25.6424465 6.2114444,25.4034481 6.5204425,24.9234447 
				6.7944446,24.3594418 7.0514407,23.7604427 7.3244433,23.1794415 7.6154437,22.6154461 7.9414401,22.0844479 
				8.1474409,21.8454418 8.3524427,21.6404476 8.4554396,21.7594433 8.2494459,21.9644451 8.0614424,22.1874447 
				7.7364459,22.7014446 7.4624438,23.2474422 7.1874423,23.829443 6.9304461,24.428442 6.6394458,25.0094433 6.3314471,25.5054455 
				6.1604457,25.7444439 5.9894443,25.9674435 			"/>
			<path class="st1" d="M5.9889483,25.9675426l-0.1030006-0.1199951L5.9889483,25.9675426z"/>
			<polygon class="st1" points="8.3522444,21.64044 13.9532423,16.1834469 14.0552397,16.303442 8.4552412,21.7594433 			"/>
			<path class="st1" d="M8.3522444,21.64044l0.1029968,0.1190033L8.3522444,21.64044z"/>
			<polygon class="st1" points="13.9357481,16.2859402 14.0557432,16.1829433 13.0277433,14.7649431 12.9077406,14.8669405 			"/>
			<polygon class="st1" points="14.0553465,16.3035412 14.1063414,16.2515469 14.0553465,16.1835461 13.9353437,16.2855434 
				13.952342,16.1835461 			"/>
			<polygon class="st1" points="13.0280485,14.7644396 12.9930449,14.7124453 12.9250441,14.7644396 13.0280485,14.8834429 
				12.9080458,14.867444 			"/>
			<polygon class="st3" points="14.0041456,11.6336412 14.7401381,10.9326448 14.7401381,2.5516484 6.4341388,2.5516484 
				6.4341388,10.7106447 9.3801451,13.5836458 9.4481382,13.5326433 9.6201429,13.378644 9.7221403,13.2766466 
				9.8421431,13.1736422 9.9451399,13.053647 10.0481443,12.9506426 10.1501417,12.8306475 10.2361403,12.7456484 
				10.3221388,12.6776476 10.3901396,12.6256456 10.4591398,12.5746431 10.5101423,12.5576448 10.5621443,12.5236483 
				7.6331439,9.6506472 7.6331439,3.6806462 13.4731398,3.6806462 13.4731398,9.6506472 12.993144,10.1966448 
				13.0451384,10.2486467 13.1991453,10.3856478 13.3871412,10.590642 13.4731398,10.6936464 13.5591383,10.829648 
				13.7301435,11.0866442 13.8671446,11.3606462 			"/>
			<polygon class="st1" points="13.9528456,11.5828371 14.0558424,11.7018404 14.7918425,10.9838381 14.688838,10.863843 			"/>
			<rect x="14.6719465" y="2.5514424" class="st1" width="0.1539993" height="8.3639984"/>
			<polygon class="st1" points="14.7917509,10.9841356 14.8257475,10.9661379 14.8257475,10.9161425 14.6717482,10.9161425 
				14.6887465,10.8641405 			"/>
			<rect x="6.433948" y="2.4834416" class="st1" width="8.3059998" height="0.1529999"/>
			<polygon class="st1" points="14.8258467,2.5515416 14.8258467,2.4835484 14.74084,2.4835484 14.74084,2.6365483 
				14.6718397,2.5515416 			"/>
			<rect x="6.3659472" y="2.5514424" class="st1" width="0.1539993" height="8.1419983"/>
			<polygon class="st1" points="6.4342456,2.4832432 6.3662448,2.4832432 6.3662448,2.551244 6.5202441,2.551244 
				6.4342456,2.6362507 			"/>
			<polygon class="st1" points="6.4855456,10.6414385 9.4315443,13.5334444 9.3285398,13.6524401 6.3825412,10.7614412 			"/>
			<polygon class="st1" points="6.3659472,10.6931429 6.3659472,10.7611437 6.3829455,10.7611437 6.4859424,10.6411486 
				6.5199466,10.6931429 			"/>
			<polygon class="st1" points="9.328845,13.53304 9.5688429,13.3270464 9.9968443,12.8830462 10.0998411,13.0030413 
				9.6708403,13.4470415 9.4318419,13.6520433 			"/>
			<polygon class="st1" points="9.328845,13.6521425 9.3798399,13.7041445 9.4318419,13.6521425 9.328845,13.5331469 
				9.4318419,13.5331469 			"/>
			<polygon class="st1" points="9.9967451,12.8826418 10.184741,12.6946459 10.3387403,12.5576448 10.510745,12.454648 
				10.5787382,12.5916491 10.4417448,12.6776476 10.2877378,12.8146486 10.0997419,13.0026445 			"/>
			<path class="st1" d="M10.0993452,13.0027361L9.9963408,12.882741L10.0993452,13.0027361z"/>
			<polygon class="st1" points="10.49335,12.5916414 10.5963469,12.4726458 7.6843448,9.5986452 7.5813479,9.718648 			"/>
			<polygon class="st1" points="10.578845,12.5916414 10.6638441,12.5406466 10.5958433,12.4726458 10.4938383,12.5916414 
				10.5108442,12.454648 			"/>
			<rect x="7.5479465" y="3.6634419" class="st1" width="0.1539993" height="5.9869995"/>
			<polygon class="st1" points="7.5817447,9.7185411 7.5477405,9.6845446 7.5477405,9.650548 7.7017398,9.650548 
				7.6847415,9.598546 			"/>
			<polygon class="st1" points="7.6330447,3.5945408 7.6330447,3.7485478 13.4730406,3.7655461 13.4730406,3.6125462 			"/>
			<polygon class="st1" points="7.5475497,3.6629384 7.5475497,3.5949452 7.6325488,3.5949452 7.6325488,3.7489445 
				7.7015491,3.6629384 			"/>
			<rect x="13.4049482" y="3.6804402" class="st1" width="0.1539993" height="5.9700012"/>
			<polygon class="st1" points="13.4733458,3.6121418 13.5583448,3.6121418 13.5583448,3.6801426 13.4043455,3.6801426 
				13.4733458,3.7651494 			"/>
			<polygon class="st1" points="13.5246458,9.7009401 13.4046431,9.5979433 12.9246397,10.1459475 13.0456419,10.2489443 			"/>
			<polygon class="st1" points="13.5587492,9.6502428 13.5587492,9.6672487 13.524745,9.7012453 13.4047422,9.5982485 
				13.4047422,9.6502428 			"/>
			<polygon class="st1" points="13.045146,10.1463366 13.2511396,10.3333406 13.4391432,10.5223436 13.6101408,10.7793398 
				13.4901457,10.8813372 13.3191404,10.6253405 13.1481428,10.4543428 12.9421415,10.2653399 			"/>
			<polygon class="st1" points="12.9250441,10.1463366 12.8740416,10.1973391 12.9420424,10.2653399 13.0450392,10.1463366 
				13.0450392,10.249341 			"/>
			<polygon class="st1" points="13.6271467,10.795743 14.0721464,11.5997438 13.9361448,11.6677446 13.4901457,10.8637438 			"/>
			<polygon class="st1" points="13.6100492,10.7791414 13.6270475,10.7961473 13.4900465,10.8641481 13.4900465,10.8821459 			"/>
			<polygon class="st1" points="13.9357481,11.667737 13.986743,11.7707415 14.0557432,11.7017412 13.9527464,11.5827379 
				14.0727415,11.5997438 			"/>
			<polygon class="st3" points="13.5587492,15.4138384 13.8327436,15.9098406 14.0037489,16.2348461 17.1377449,13.1738405 
				17.1717491,0.0888416 4.0367465,0.0888416 4.0367465,13.2418413 5.337749,14.4738436 5.4067492,14.4388399 5.5777469,14.3368425 
				5.7837481,14.1658449 5.9037471,14.0798388 6.0057483,13.9598436 6.1947474,13.7378435 6.3657489,13.5158434 
				6.5197482,13.3098421 5.2357478,12.0448427 5.2357478,1.2178394 15.7847471,1.2178394 15.7847471,12.0448427 
				12.975749,14.8148394 13.0447416,14.8838396 13.2157469,15.0378389 13.3187437,15.1228456 13.4217482,15.2258425 
				13.5077467,15.3288393 			"/>
			<polygon class="st1" points="13.6271467,15.3796358 14.0721464,16.2006435 13.9361448,16.2696438 13.4901457,15.4476366 			"/>
			<polygon class="st1" points="13.9528456,16.1834393 17.0868416,13.1214418 17.1888466,13.242444 14.0558424,16.303442 			"/>
			<polygon class="st1" points="13.9357481,16.2693386 13.986743,16.3723431 14.0557432,16.3033428 13.9527464,16.1833401 
				14.0727415,16.2013454 			"/>
			<polygon class="st1" points="17.0524483,13.1736422 17.2064476,13.1736422 17.2234459,0.0886432 17.0694466,0.0886432 			"/>
			<polygon class="st1" points="17.1891518,13.2420397 17.2071495,13.2240419 17.2071495,13.1740465 17.0521507,13.1740465 
				17.0861473,13.1220446 			"/>
			<rect x="4.0369487" y="0.0204364" class="st1" width="13.118" height="0.1529999"/>
			<polygon class="st1" points="17.2238503,0.0886356 17.2238503,0.0206424 17.15485,0.0206424 17.15485,0.1736423 
				17.0698433,0.0886356 			"/>
			<rect x="3.9689476" y="0.0884372" class="st1" width="0.1539993" height="13.1529999"/>
			<polygon class="st1" points="4.0368495,0.0203372 3.9688485,0.0203372 3.9688485,0.088338 4.1218486,0.088338 
				4.0368495,0.1733447 			"/>
			<polygon class="st1" points="4.0880466,13.1902361 3.9850457,13.3102388 5.287044,14.5422411 5.3900447,14.4212389 			"/>
			<polygon class="st1" points="3.9684479,13.2420397 3.9684479,13.3100405 3.9854462,13.3100405 4.0884471,13.1900454 
				4.1224475,13.2420397 			"/>
			<polygon class="st1" points="5.303947,14.4050417 5.5269465,14.2850466 5.7319446,14.114049 5.9549441,13.9090471 
				6.0579448,14.0280428 5.8349452,14.2340441 5.6299434,14.4050417 5.3729434,14.5420427 			"/>
			<polygon class="st1" points="5.2868495,14.5418367 5.3208461,14.575841 5.372848,14.5418367 5.3038478,14.4048433 
				5.3898463,14.4218416 			"/>
			<polygon class="st1" points="5.9376483,13.9089403 6.4516482,13.2589464 6.5716434,13.3609438 6.0576472,14.0119448 			"/>
			<polygon class="st1" points="6.0578494,14.028142 6.0578494,14.0111437 5.9378467,13.9091463 5.9548488,13.9091463 			"/>
			<polygon class="st1" points="6.4684482,13.3787355 5.1844478,12.1127367 5.2864451,11.9927416 6.571445,13.2587404 			"/>
			<polygon class="st1" points="6.571445,13.3611422 6.6224399,13.3101473 6.571445,13.2581453 6.4684405,13.3791475 
				6.4514422,13.2581453 			"/>
			<rect x="5.1669497" y="1.2174426" class="st1" width="0.1539993" height="10.8269958"/>
			<polygon class="st1" points="5.1842494,12.1130419 5.1672473,12.1130419 5.1672473,12.0450487 5.3212466,12.0450487 
				5.2872462,11.9930468 			"/>
			<rect x="5.2359462" y="1.1494418" class="st1" width="10.5489998" height="0.1529999"/>
			<polygon class="st1" points="5.1671481,1.2175418 5.1671481,1.1495486 5.2351451,1.1495486 5.2351451,1.3025485 
				5.3211474,1.2175418 			"/>
			<rect x="15.7169447" y="1.2174426" class="st1" width="0.1539993" height="10.8269958"/>
			<polygon class="st1" points="15.7848463,1.1492358 15.8708448,1.1492358 15.8708448,1.2172366 15.7168455,1.2172366 
				15.7848463,1.3022434 			"/>
			<polygon class="st1" points="15.8366499,12.1130419 15.7336454,11.9930468 12.9246473,14.7640429 13.0276442,14.8840456 			"/>
			<polygon class="st1" points="15.8708448,12.0447359 15.8708448,12.0957384 15.8368406,12.1127367 15.7338438,11.9927416 
				15.7168379,12.0447359 			"/>
			<polygon class="st1" points="13.0280485,14.7644396 13.2680464,14.9864397 13.4730482,15.1744432 13.6100416,15.3634462 
				13.4900465,15.4654436 13.3530455,15.2774401 13.1650419,15.1064425 12.9250441,14.8834429 			"/>
			<polygon class="st1" points="12.9250441,14.7644396 12.8570433,14.8324404 12.9250441,14.8834429 13.0280409,14.7644396 
				13.0280409,14.8834429 			"/>
			<polygon class="st1" points="13.6100492,15.3630419 13.6270475,15.3800478 13.4900465,15.4480486 13.4900465,15.4660463 			"/>
			<polygon class="st3" points="10.5617476,14.935338 10.6297407,15.0203447 10.7327452,15.1223421 11.0067472,15.3633394 
				11.6917448,15.9443407 12.0517454,16.2693462 12.411746,16.6113415 12.5657454,16.7653408 12.7197447,16.9363461 
				12.8567457,17.0903454 12.9767408,17.2273464 13.2157469,17.5523434 13.4557447,17.8943462 13.7297468,18.2703457 
				13.986743,18.6643429 14.2437468,19.0743389 14.4837446,19.485342 14.6887465,19.8783398 14.7917433,20.0663433 
				14.8607435,20.2543392 14.9977446,20.5283413 15.1177473,20.7853451 15.2537413,21.0243435 15.4087477,21.2473431 
				15.4937468,21.3663464 15.5797453,21.4683437 15.7677412,21.6913433 15.8707457,21.7933407 15.9907408,21.8963451 
				16.2297478,22.1013393 16.4017448,22.2393398 16.5727425,22.3413448 16.8807411,22.546339 17.1037483,22.6653423 
				17.2067451,22.7013454 17.2577477,20.2033443 17.1377449,20.1523418 16.9837456,20.1003399 16.812748,20.0153408 
				16.6067467,19.9133434 16.3847466,19.7753429 16.161747,19.6223431 16.059742,19.5363445 15.9567442,19.4513454 
				15.7677412,19.2623425 15.5797453,19.0573406 15.425746,18.834341 15.2707472,18.5953426 15.1177473,18.3563442 
				14.9797468,18.0993404 14.6887465,17.5693417 14.5347471,17.2953396 14.3977461,16.9883404 14.0897474,16.3543453 
				13.9527464,16.0643444 13.8157454,15.8073397 13.7477446,15.6873446 13.6957426,15.5843401 13.5587416,15.4143419 
				13.3187437,15.1403399 13.0967436,14.9173403 12.6857405,14.5243425 12.2737455,14.1653414 12.0517454,13.9593401 
				11.8287458,13.7383394 			"/>
			<polygon class="st1" points="10.5958509,14.8836412 11.0578489,15.3116426 11.7258482,15.8936434 12.4628477,16.5426464 
				12.7708464,16.8676434 13.0278502,17.1756496 12.9078474,17.2786465 12.6508436,16.9706478 12.3598509,16.6626492 
				11.6238508,16.0126476 10.9558439,15.4316454 10.4928465,15.003644 			"/>
			<polygon class="st1" points="13.0280485,17.1755428 14.038043,18.6125469 14.552043,19.4505444 14.9290419,20.2025433 
				14.7920485,20.2715435 14.4150419,19.5195446 13.9180479,18.7155437 12.9080458,17.2785473 			"/>
			<path class="st1" d="M13.0280485,17.1755428l-0.1200027,0.1030045L13.0280485,17.1755428z"/>
			<polygon class="st1" points="14.9289503,20.20294 15.1859465,20.7329464 15.4769468,21.2129421 15.6309462,21.417944 
				15.8199492,21.6399441 16.2819481,22.0509472 16.1789513,22.1709423 15.7169447,21.7599468 15.5109434,21.5199413 
				15.3399458,21.2809429 15.0489454,20.8019466 14.7919493,20.2709408 			"/>
			<path class="st1" d="M14.9289503,20.20294l-0.137001,0.0680008L14.9289503,20.20294z"/>
			<polygon class="st1" points="16.2819481,22.0505428 16.606945,22.2895489 16.9149437,22.4605465 17.2409477,22.6315441 
				17.1719475,22.7695446 16.8469429,22.5975475 16.5049477,22.409544 16.1789436,22.1705456 			"/>
			<path class="st1" d="M16.1789513,22.1707439l0.1029968-0.1199951L16.1789513,22.1707439z"/>
			<polygon class="st1" points="17.1378517,22.7009411 17.2748451,22.7009411 17.3258476,20.2029476 17.1888466,20.2029476 			"/>
			<polygon class="st1" points="17.1720467,22.7693386 17.2750435,22.8203411 17.2750435,22.7013454 17.1380424,22.7013454 
				17.2410393,22.6313457 			"/>
			<polygon class="st1" points="17.2238503,20.2713375 16.7788429,20.084341 16.3328438,19.8443432 16.1108437,19.6903439 
				15.9048491,19.5013409 16.0078468,19.3993435 16.2128487,19.5703411 16.4188499,19.7243404 16.8468437,19.94734 
				17.2918434,20.1343441 			"/>
			<polygon class="st1" points="17.3263512,20.20294 17.3263512,20.1519451 17.292347,20.1349468 17.2233467,20.2709408 
				17.1893501,20.20294 			"/>
			<polygon class="st1" points="15.9049482,19.5193386 15.5279417,19.0913448 15.2029448,18.6463451 14.6199446,17.6213436 
				14.7399473,17.5353451 15.3229475,18.5613461 15.6309462,18.9893398 16.007946,19.3993435 			"/>
			<polygon class="st1" points="15.9049482,19.5017376 15.9049482,19.519743 16.007946,19.3987408 			"/>
			<polygon class="st1" points="14.6203489,17.6033382 14.0213423,16.3883419 13.7473478,15.8593416 13.6103468,15.636342 
				13.490344,15.4653444 13.6103468,15.3633394 13.7303419,15.5343447 13.8673429,15.7733431 14.1583433,16.3203411 
				14.7573423,17.5353451 			"/>
			<polygon class="st1" points="14.6203489,17.6209393 14.6203489,17.6029415 14.7573423,17.5349407 14.740344,17.5349407 			"/>
			<polygon class="st1" points="13.5075483,15.4822359 13.0455427,14.9862413 12.6335478,14.5922365 12.2225447,14.2342424 
				11.7605467,13.806241 11.8635435,13.6862383 12.3255415,14.1142397 12.7365446,14.4732409 13.1475477,14.867238 
				13.6105452,15.3632402 			"/>
			<polygon class="st1" points="13.6100492,15.3630419 13.5070448,15.4820452 13.4900465,15.4660463 			"/>
			<polygon class="st1" points="11.8634443,13.8064394 11.7604399,13.6864443 10.4934416,14.8834429 10.595439,15.0034456 			"/>
			<polygon class="st1" points="11.8634443,13.6863375 11.8114424,13.6353426 11.7604399,13.6863375 11.8634443,13.8063402 
				11.7604399,13.8063402 			"/>
			<polygon class="st1" points="10.49335,14.8836412 10.4243498,14.951642 10.49335,15.003644 10.5963469,14.8836412 
				10.5963469,15.003644 			"/>
		</g>
		<g>
			<path class="st4" d="M19.3594971,31.7453442v-2.0170021h0.387001c0.2869949,0,0.4889984,0.0150032,0.6059952,0.0430031
				c0.1170044,0.0289993,0.2200012,0.0779991,0.3080063,0.1450005c0.1159973,0.0889969,0.2039948,0.2039986,0.2630005,0.3419991
				c0.0599976,0.1389999,0.0899963,0.2989998,0.0899963,0.4799995c0,0.1790009-0.0299988,0.3400002-0.0889969,0.4770012
				c-0.0590057,0.1379967-0.1470032,0.2519989-0.2639999,0.3409996c-0.0880051,0.0680008-0.189003,0.1159973-0.3010025,0.1459999
				c-0.112999,0.0279999-0.288002,0.0429993-0.526001,0.0429993h-0.086998H19.3594971z M19.6014938,31.5193424h0.1529999
				c0.2490005,0,0.4210052-0.0109978,0.5160065-0.0319977c0.095993-0.0219994,0.1749954-0.0590019,0.237999-0.1119995
				c0.0830002-0.0680008,0.1459961-0.1570015,0.1889954-0.2660027c0.0429993-0.1089973,0.0650024-0.2339973,0.0650024-0.3740005
				c0-0.1419983-0.0210037-0.2659988-0.064003-0.3729973c-0.0429993-0.1070023-0.1059952-0.1949997-0.1899948-0.2649994
				c-0.0630035-0.0540009-0.1430054-0.0909996-0.2420044-0.1130028c-0.0970001-0.0229988-0.2679977-0.0340004-0.512001-0.0340004
				h-0.1529999V31.5193424z M17.8524933,29.648344l0.9180069,2.0970001H18.510498l-0.262001-0.6189995h-0.7890015
				l-0.2610016,0.6189995H16.9375L17.8524933,29.648344z M17.8524933,30.1783428l-0.3199997,0.743h0.6420059L17.8524933,30.1783428z
				 M14.8374929,31.7453442v-2.0170021h0.387001c0.2870026,0,0.4889984,0.0150032,0.6050034,0.0430031
				c0.1179962,0.0289993,0.2210016,0.0779991,0.3089991,0.1450005c0.1149979,0.0889969,0.2030029,0.2039986,0.2630005,0.3419991
				c0.0599976,0.1389999,0.0899963,0.2989998,0.0899963,0.4799995c0,0.1790009-0.0299988,0.3400002-0.0889969,0.4770012
				c-0.0599976,0.1379967-0.1480026,0.2519989-0.2639999,0.3409996c-0.0879974,0.0680008-0.1890039,0.1159973-0.3010035,0.1459999
				c-0.112999,0.0279999-0.2879944,0.0429993-0.526001,0.0429993h-0.086998H14.8374929z M15.0794973,31.5193424h0.1529999
				c0.2490005,0,0.4199982-0.0109978,0.5159988-0.0319977c0.0950012-0.0219994,0.1749954-0.0590019,0.237999-0.1119995
				c0.0830011-0.0680008,0.1460047-0.1570015,0.1890039-0.2660027c0.0429993-0.1089973,0.0649948-0.2339973,0.0649948-0.3740005
				c0-0.1419983-0.0209961-0.2659988-0.0639954-0.3729973c-0.0429993-0.1070023-0.1060028-0.1949997-0.1900034-0.2649994
				c-0.0630035-0.0540009-0.1439972-0.0909996-0.2419968-0.1130028c-0.0970001-0.0229988-0.2680054-0.0340004-0.512001-0.0340004
				h-0.1529999V31.5193424z M13.7284918,29.7283421h0.2400055v2.0170021h-0.2400055V29.7283421z M12.6284933,30.6243458
				c0.1320038,0.0569992,0.2310028,0.1309967,0.2980042,0.223999c0.0659943,0.0929985,0.098999,0.2019997,0.098999,0.3289986
				c0,0.1860008-0.0579987,0.3349991-0.177002,0.4480019c-0.1179962,0.1139984-0.2740021,0.1699982-0.4690018,0.1699982
				c-0.1589966,0-0.2919998-0.0400009-0.3999939-0.1209984c-0.1070023-0.0820007-0.1790009-0.1970024-0.2170029-0.3460007
				l0.2170029-0.1090012c0.0299988,0.1230011,0.0779953,0.2159996,0.1449966,0.2789993
				c0.0680008,0.0620003,0.1529999,0.0930023,0.2549973,0.0930023c0.1200027,0,0.2180023-0.0340004,0.2919998-0.1030006
				c0.0740051-0.0699997,0.1119995-0.1590004,0.1119995-0.2709999c0-0.0900002-0.0259933-0.1689987-0.0779953-0.2350006
				c-0.052002-0.0670013-0.1300049-0.1220016-0.2350006-0.1689987l-0.2450027-0.1049995
				c-0.1339951-0.0550003-0.2340012-0.1270027-0.2999954-0.2159996c-0.0660019-0.0880013-0.0979996-0.1940002-0.0979996-0.3170013
				c0-0.1430016,0.0529938-0.2610016,0.1589966-0.3549995c0.1070023-0.0940018,0.2419968-0.1410027,0.4079971-0.1410027
				c0.1210022,0,0.2260056,0.0270004,0.3150024,0.0770035c0.0889969,0.0519981,0.1579971,0.1279984,0.2070007,0.2279968
				l-0.197998,0.1270027c-0.0450058-0.0780029-0.0960007-0.1360016-0.1520004-0.1739998
				c-0.0559998-0.038002-0.1190033-0.0580025-0.1900024-0.0580025c-0.0899963,0-0.163002,0.0279999-0.2210007,0.0830002
				c-0.0569992,0.0550003-0.0859985,0.125-0.0859985,0.2099991c0,0.0730019,0.0220032,0.1340027,0.0670013,0.1870003
				c0.0429993,0.0530014,0.1119995,0.0979996,0.2050018,0.1389999L12.6284933,30.6243458z M10.2384939,29.9303455v0.6749992
				h0.1819992c0.1880035,0,0.314003-0.0230026,0.3769989-0.0720024c0.064003-0.0479965,0.0950012-0.132,0.0950012-0.2519989
				c0-0.1300011-0.0319977-0.2210007-0.0979996-0.2729988c-0.0649948-0.0510025-0.1899948-0.0779991-0.3740005-0.0779991H10.2384939
				z M10.0034933,31.7453442v-2.0170021h0.473999c0.1350021,0,0.2340012,0.0070038,0.2970047,0.0220032
				c0.0629959,0.0159988,0.1179962,0.0410004,0.1660004,0.0789986c0.0599976,0.0460014,0.1059952,0.1090012,0.1389999,0.1879997
				c0.0339966,0.0779991,0.0499954,0.1650009,0.0499954,0.2610016c0,0.1649971-0.0459976,0.2899971-0.1380005,0.3769989
				c-0.0929947,0.0859985-0.2279968,0.1290016-0.4059982,0.1290016h-0.0429993l0.7710037,0.9609985h-0.3050003l-0.7360001-0.9609985
				h-0.0340042v0.9609985H10.0034933z M8.1524954,31.7453442v-2.0170021h1.064003v0.2190018H8.3924932v0.5789986h0.8240051
				v0.2230034H8.3924932v0.7729988h0.8240051v0.2229996H8.1524954z M6.711494,31.8243427l-0.8529968-2.0960007h0.2600021
				l0.5929947,1.5430031l0.5890045-1.5430031h0.2589951L6.711494,31.8243427z M5.0264964,29.7283421h0.2400017v2.0170021H5.0264964
				V29.7283421z M2.4564965,31.7453442V29.648344l1.4760017,1.6119995v-1.5320015h0.2290003v2.0960007l-1.476002-1.5949974
				v1.5159988H2.4564965z M0.035499,29.7283421h0.2429962v1.2550011c0,0.2040024,0.0430031,0.3530006,0.1300011,0.4490013
				c0.0860023,0.0950012,0.2229996,0.144001,0.4080009,0.144001c0.1860008,0,0.3219986-0.0489998,0.4080009-0.144001
				c0.0879974-0.0960007,0.1310005-0.2449989,0.1310005-0.4490013v-1.2550011h0.2439995v1.2550011
				c0,0.2730026-0.0650024,0.4770012-0.1949997,0.6119995c-0.1300011,0.1360016-0.3260002,0.2030029-0.5880013,0.2030029
				c-0.2599983,0-0.4560013-0.0670013-0.5859985-0.2030029c-0.1300011-0.1349983-0.1949997-0.3389969-0.1949997-0.6119995
				V29.7283421z"/>
			<path class="st4" d="M20.2040024,32.7723389l0.9179993,2.0970001h-0.2610016l-0.262001-0.6189995h-0.788002l-0.262001,0.6189995
				h-0.2599945L20.2040024,32.7723389z M20.2040024,33.3023376l-0.3209991,0.743h0.6419983L20.2040024,33.3023376z
				 M18.098999,33.0543404v0.6749992h0.1829987c0.1870041,0,0.3130035-0.0229988,0.3759995-0.0719986
				c0.064003-0.0480003,0.0950012-0.1320038,0.0950012-0.2520027c0-0.1300011-0.0319977-0.2210007-0.0970001-0.2729988
				c-0.0660019-0.0509987-0.1899948-0.0779991-0.3740005-0.0779991H18.098999z M17.8649979,34.869339v-2.0169983h0.4729996
				c0.1360016,0,0.2340012,0.007,0.2970047,0.0219994c0.0629959,0.0159988,0.1189957,0.0410004,0.1660004,0.0789986
				c0.0599976,0.045002,0.1069946,0.1090012,0.1389999,0.1870003c0.0339966,0.0789986,0.0499954,0.1660004,0.0499954,0.262001
				c0,0.1650009-0.0459976,0.2900009-0.1389999,0.3759995c-0.0909958,0.086998-0.2269974,0.1290016-0.4049988,0.1290016h-0.0429993
				l0.7709961,0.961998h-0.3049927l-0.7360001-0.961998H18.098999v0.961998H17.8649979z M16.9449997,32.8523407h0.2399979v2.0169983
				h-0.2399979V32.8523407z M16.0429993,32.8523407h0.2429962v1.572998c0,0.1689987-0.0379944,0.2939987-0.112999,0.375
				c-0.0739975,0.0820007-0.1899958,0.1220016-0.3449945,0.1220016c-0.0830002,0-0.1570053-0.0160027-0.2240067-0.0489998
				c-0.0669937-0.0320015-0.1289978-0.0830002-0.1879959-0.1500015l0.1589966-0.1590004
				c0.0490036,0.052002,0.0950012,0.0890007,0.137001,0.1100006c0.0429993,0.0229988,0.086998,0.0330009,0.1330032,0.0330009
				c0.0719986,0,0.1230011-0.0270004,0.1529999-0.0810013c0.0299997-0.0540009,0.0449991-0.1609993,0.0449991-0.3190002V32.8523407z
				 M14.3420019,32.7723389l0.9179993,2.0970001h-0.2610016l-0.262001-0.6189995h-0.788002l-0.262001,0.6189995H13.427001
				L14.3420019,32.7723389z M14.3420019,33.3023376l-0.3210068,0.743h0.6420059L14.3420019,33.3023376z M11.5209951,32.8523407
				h0.2430038v1.2549973c0,0.2040024,0.0429993,0.3530006,0.1299973,0.4490013
				c0.0870056,0.0950012,0.2229996,0.1430016,0.4090042,0.1430016c0.1849976,0,0.3209991-0.0480003,0.4079971-0.1430016
				c0.086998-0.0960007,0.1299973-0.2449989,0.1299973-0.4490013v-1.2549973h0.2440033v1.2549973
				c0,0.2719994-0.0650024,0.4760017-0.1949997,0.6119995c-0.1299973,0.1360016-0.3259964,0.2030029-0.586998,0.2030029
				c-0.262001,0-0.4570007-0.0670013-0.5870056-0.2030029c-0.1299973-0.1359978-0.1949997-0.3400002-0.1949997-0.6119995V32.8523407
				z M10.1500006,33.8283386h0.8320007V33.89534c0,0.3169975-0.090004,0.5680008-0.2700043,0.7519989
				c-0.1800003,0.1829987-0.4249954,0.2750015-0.7369995,0.2750015c-0.0950012,0-0.1849976-0.0090027-0.2709961-0.0300026
				c-0.0850067-0.0200005-0.1650009-0.0499992-0.2369995-0.0879974c-0.1650009-0.0909996-0.2940063-0.2170029-0.3830032-0.3770027
				c-0.090004-0.1599998-0.1350021-0.3429985-0.1350021-0.5469971c0-0.1680031,0.026001-0.3190002,0.0800018-0.4550018
				c0.0540009-0.1349983,0.1350021-0.2550011,0.2429962-0.3569984c0.0920029-0.0860023,0.1970062-0.1520004,0.3170013-0.196003
				c0.1210022-0.0429993,0.2540054-0.0659981,0.4000015-0.0659981c0.1940002,0,0.3619995,0.0349998,0.5039978,0.105999
				c0.1430054,0.0699997,0.2610016,0.1749992,0.3550034,0.3170013l-0.2020035,0.1609993
				c-0.0719986-0.1220016-0.1629944-0.2140007-0.2709961-0.2739983c-0.1090012-0.0620003-0.2340012-0.0920029-0.3779984-0.0920029
				c-0.2340012,0-0.4240036,0.0790024-0.5699997,0.2369995c-0.1460037,0.1570015-0.2190018,0.3640022-0.2190018,0.6190033
				c0,0.2419968,0.0739975,0.4389992,0.2220001,0.5929985c0.1490021,0.1539993,0.336998,0.2319984,0.5670013,0.2319984
				c0.2019958,0,0.3709946-0.060997,0.5049973-0.1839981c0.1350021-0.1230011,0.2089996-0.2820015,0.223999-0.4790001h-0.5759964
				V33.8283386z M6.8909984,32.7723389l0.9179993,2.0970001H7.5489955l-0.2619934-0.6189995h-0.788002L6.236999,34.869339H5.9769969
				L6.8909984,32.7723389z M6.8909984,33.3023376l-0.3199997,0.743H7.212997L6.8909984,33.3023376z M4.7760005,34.869339v-2.0169983
				h0.2400017v1.7879982h0.7619972v0.2290001H4.7760005z M2.2820008,34.869339v-2.0169983H3.346v0.218998H2.5219986v0.5779991H3.346
				v0.2229996H2.5219986v0.7740021H3.346v0.2229996H2.2820008z M0.0440019,34.869339v-2.0169983h0.3879967
				c0.2860031,0,0.4880028,0.0149994,0.6050034,0.0429993c0.1169968,0.0289993,0.2199974,0.0769997,0.3079987,0.1450005
				c0.1160011,0.0889969,0.2039986,0.2039986,0.2630005,0.3419991c0.0599976,0.1389999,0.0900002,0.2989998,0.0900002,0.4799995
				c0,0.1790009-0.0300026,0.3390007-0.0890007,0.4770012c-0.0590019,0.1380005-0.1469994,0.2519989-0.2639999,0.3409996
				c-0.0880013,0.0680008-0.1879997,0.1160011-0.3009987,0.1459999c-0.1120033,0.0279999-0.288002,0.0429993-0.526001,0.0429993
				H0.4319986H0.0440019z M0.287002,34.6433372h0.1529999c0.2479973,0,0.4199982-0.0109978,0.5149994-0.0319977
				c0.0960007-0.0219994,0.1749992-0.0590019,0.2389984-0.1119995c0.0820007-0.0680008,0.1450005-0.1570015,0.1879997-0.2660027
				c0.0440025-0.1089973,0.0650024-0.2339973,0.0650024-0.3739967c0-0.1420021-0.0209999-0.2660027-0.064003-0.3730011
				c-0.0429993-0.1070023-0.105999-0.1959991-0.1889992-0.2649994c-0.0639992-0.0540009-0.144001-0.0909996-0.2420006-0.1130028
				c-0.0979996-0.0229988-0.2689972-0.0339966-0.5119972-0.0339966H0.287002V34.6433372z"/>
			<path class="st5" d="M20.1172943,37.2806396l0.9180069,2.0970001h-0.2610016l-0.262001-0.618h-0.788002l-0.262001,0.618
				H19.202301L20.1172943,37.2806396z M20.1172943,37.8116379l-0.3209991,0.7420006h0.6420059L20.1172943,37.8116379z
				 M18.5982971,37.3606377h0.2399979v2.0180016h-0.2399979V37.3606377z M17.7352982,37.3606377h0.2429962v1.5730019
				c0,0.1699982-0.0379944,0.2949982-0.112999,0.3759995c-0.0739975,0.0820007-0.1899948,0.1220016-0.3450012,0.1220016
				c-0.0819931,0-0.1569977-0.0170021-0.223999-0.0490036c-0.0659943-0.0319977-0.1289978-0.0829964-0.1879959-0.1509972
				l0.1589966-0.1590004c0.0490036,0.0519981,0.0950012,0.0890007,0.137001,0.1110001
				c0.0429993,0.0219994,0.086998,0.0330009,0.1330032,0.0330009c0.0719986,0,0.1230011-0.0270004,0.1529999-0.0810013
				c0.0299988-0.0550003,0.0449982-0.1609993,0.0449982-0.3190002V37.3606377z M16.0722961,37.2806396l0.9179993,2.0970001
				h-0.2599945l-0.262001-0.618h-0.788003l-0.262001,0.618h-0.2600021L16.0722961,37.2806396z M16.0722961,37.8116379
				l-0.3200006,0.7420006h0.6419992L16.0722961,37.8116379z M14.0062933,37.5636406v0.6739998h0.1830063
				c0.1879959,0,0.3129959-0.0230026,0.3769989-0.0720024c0.0629959-0.0480003,0.0950012-0.132,0.0950012-0.2529984
				c0-0.1290016-0.0330048-0.2190018-0.0980072-0.2719994c-0.0649948-0.052002-0.1899948-0.0769997-0.3739929-0.0769997H14.0062933z
				 M13.7722998,39.3776398v-2.0170021h0.473999c0.1349945,0,0.2340012,0.007,0.2969971,0.0230026
				c0.0630035,0.0149994,0.1180038,0.0410004,0.1660004,0.0769997c0.0599976,0.0469971,0.1060028,0.1100006,0.1389999,0.1889992
				s0.0500031,0.1660004,0.0500031,0.2599983c0,0.1650009-0.0460052,0.2910004-0.1389999,0.3770027
				c-0.0920029,0.0859985-0.2280045,0.1289978-0.4060059,0.1289978h-0.0429993l0.7710037,0.9620018h-0.3050003L14.041297,38.415638
				h-0.0350037v0.9620018H13.7722998z M12.8912954,37.3606377h0.2399979v2.0180016h-0.2399979V37.3606377z M11.0692968,39.3776398
				v-2.0170021h0.2369995v0.8969994l0.8470001-0.8969994h0.2870026l-0.8650055,0.9080009l0.9500046,1.1090012h-0.3090057
				l-0.909996-1.0860023v1.0860023H11.0692968z M9.4462957,39.3776398v-2.0170021h1.064003v0.2190018H9.6862936v0.5779991h0.8240051
				v0.223999H9.6862936v0.7720032h0.8240051v0.223999H9.4462957z M7.7332988,37.3606377h0.2399979v2.0180016H7.7332988V37.3606377z
				 M6.8502955,37.3606377h0.2399979v2.0180016H6.8502955V37.3606377z M5.0282969,39.3776398v-2.0170021h0.2369995v0.8969994
				l0.8470001-0.8969994h0.2870026l-0.8650017,0.9080009l0.9500008,1.1090012H6.1753001l-0.9100037-1.0860023v1.0860023H5.0282969z
				 M4.1482997,37.3606377h0.2399979v2.0180016H4.1482997V37.3606377z M1.9552988,39.3776398v-2.0170021h0.2389983v0.776001
				h1.0720024v-0.776001H3.510299v2.0170021H3.2662995v-1.0130005H2.1942971v1.0130005H1.9552988z M1.0852998,38.257637
				c0.1309967,0.0560036,0.2299995,0.1300011,0.2969971,0.2230034c0.0670013,0.0929985,0.1000023,0.2029991,0.1000023,0.3289986
				c0,0.1860008-0.0590019,0.3359985-0.177002,0.4490013c-0.118,0.112999-0.2739983,0.1699982-0.468998,0.1699982
				c-0.1590004,0-0.2919998-0.0400009-0.4000015-0.1219978c-0.1069984-0.0810013-0.1800003-0.196003-0.2169991-0.3470001
				l0.2169991-0.1070023c0.0299988,0.1220016,0.0779991,0.2150002,0.1459999,0.2770004
				c0.0670013,0.0639992,0.1520004,0.0950012,0.2540016,0.0950012c0.1199989,0,0.2179985-0.0349998,0.2919998-0.1040001
				c0.0739975-0.0699997,0.1110001-0.1599998,0.1110001-0.2709999c0-0.0900002-0.026001-0.1679993-0.0769997-0.2350006
				c-0.0530014-0.0670013-0.1300011-0.1230011-0.2350006-0.1689987l-0.2450027-0.1040001
				c-0.1349983-0.057003-0.2349968-0.1280022-0.2999992-0.2170029c-0.0659981-0.0879974-0.098999-0.192997-0.098999-0.3159981
				c0-0.144001,0.0530014-0.262001,0.1599998-0.355999c0.105999-0.0930023,0.243-0.1400032,0.4080009-0.1400032
				c0.1209984,0,0.2259979,0.0250015,0.3149986,0.0770035c0.0880013,0.0509987,0.1580009,0.1269989,0.2070007,0.2269974
				l-0.1990013,0.1259995c-0.0439987-0.0769997-0.0949974-0.1349983-0.1509972-0.1730003
				c-0.0559998-0.0389977-0.1200027-0.0569992-0.1900024-0.0569992c-0.0900002,0-0.1639977,0.0270004-0.2210007,0.0820007
				c-0.0569992,0.0559998-0.0859985,0.125-0.0859985,0.2109985c0,0.071003,0.0219994,0.1340027,0.0660019,0.1850014
				c0.0439987,0.0530014,0.112999,0.098999,0.204998,0.1399994L1.0852998,38.257637z"/>
			<path class="st5" d="M20.1091003,40.4044418l0.9179993,2.0970001H20.766098l-0.2610016-0.618H19.716095l-0.260994,0.618
				h-0.2610016L20.1091003,40.4044418z M20.1091003,40.9354401l-0.3210068,0.7420006h0.6420059L20.1091003,40.9354401z
				 M17.9850998,40.6874428v0.6749992h0.1829987c0.1879959,0,0.3129959-0.0250015,0.3769989-0.0730019
				c0.0630035-0.0469971,0.0940018-0.132,0.0940018-0.2529984c0-0.1280022-0.0320053-0.2190018-0.0970001-0.2719994
				c-0.0660019-0.052002-0.1900024-0.0769997-0.3740005-0.0769997H17.9850998z M17.7510986,42.501442v-2.0170021h0.4729996
				c0.1360016,0,0.2340012,0.0080032,0.2979965,0.0220032c0.0630035,0.0159988,0.1180038,0.0419998,0.1660004,0.0779991
				c0.0590057,0.0470009,0.1060028,0.1110001,0.1389999,0.1889992c0.0330048,0.0779991,0.0500031,0.1650009,0.0500031,0.2610016
				c0,0.1649971-0.0469971,0.2909966-0.1389999,0.3759995c-0.0920029,0.0859985-0.2280045,0.1289978-0.4059982,0.1289978h-0.0429993
				l0.7709961,0.9620018h-0.3050003l-0.7360001-0.9620018h-0.0339966v0.9620018H17.7510986z M16.8120956,40.4844398h0.2399979
				v2.0180016h-0.2399979V40.4844398z M15.8710928,40.4844398h0.2400064v2.0180016h-0.2400064V40.4844398z M14.9500952,40.4844398
				h0.2430038v1.5730019c0,0.1699982-0.0370026,0.2949982-0.1119995,0.3759995
				c-0.0750046,0.0810013-0.1900024,0.1220016-0.3450012,0.1220016c-0.0830002,0-0.1580048-0.0170021-0.223999-0.0489998
				c-0.0670013-0.0320015-0.1290054-0.0830002-0.1880035-0.151001l0.1579971-0.1580009
				c0.0500031,0.0509987,0.0950012,0.0870018,0.1380005,0.1100006c0.0419998,0.0219994,0.0860062,0.0330009,0.1320038,0.0330009
				c0.072998,0,0.1240005-0.0270004,0.1539993-0.0820007c0.0289993-0.0540009,0.0439987-0.1599998,0.0439987-0.3190002V40.4844398z
				 M13.230094,40.4044418l0.9179993,2.0970001h-0.260994l-0.2610016-0.618h-0.7890015l-0.2610016,0.618H12.315093
				L13.230094,40.4044418z M13.230094,40.9354401l-0.3209991,0.7420006h0.6419983L13.230094,40.9354401z M9.5930929,40.4844398
				h0.2590027l0.5110016,1.4840012l0.5329971-1.5639992l0.5390015,1.5639992l0.5139999-1.4840012h0.2590027l-0.7810059,2.0950012
				l-0.5279999-1.5589981l-0.5249939,1.5589981L9.5930929,40.4844398z M7.3420939,42.501442v-2.0170021H8.405097v0.2190018
				H7.5810924v0.5789986H8.405097v0.2229996H7.5810924v0.7730026H8.405097v0.2229996H7.3420939z M5.661098,42.501442v-2.0170021
				h1.0639992v0.2190018H5.9010997v0.5789986h0.8239975v0.2229996H5.9010997v0.7730026h0.8239975v0.2229996H5.661098z
				 M4.1640964,42.501442v-2.0170021H4.404098v1.7890015h0.7610016v0.2280006H4.1640964z M2.2870972,40.0574417
				c0-0.0400009,0.0170021-0.0760002,0.0480003-0.1070023c0.0309982-0.0319977,0.0690002-0.0469971,0.1110001-0.0469971
				c0.0429993,0,0.0779991,0.0139999,0.1069984,0.0459976c0.0300026,0.0300026,0.0440025,0.0660019,0.0440025,0.1080017
				c0,0.0459976-0.0139999,0.0830002-0.0419998,0.1119995s-0.064003,0.0429993-0.1090012,0.0429993
				c-0.0460014,0-0.0839996-0.0139999-0.1139984-0.0439987C2.3030961,40.1394424,2.2870972,40.1024399,2.2870972,40.0574417
				 M2.7900994,40.0574417c0-0.0410004,0.0159988-0.0769997,0.0459976-0.1080017
				c0.031002-0.0309982,0.0670013-0.0459976,0.1090012-0.0459976s0.0779991,0.0139999,0.1090012,0.0459976
				c0.0309982,0.0300026,0.0459976,0.0660019,0.0459976,0.1080017c0,0.0449982-0.0139999,0.0820007-0.0439987,0.1110001
				c-0.0289993,0.0299988-0.0660019,0.0439987-0.1110001,0.0439987c-0.045002,0-0.0810013-0.0139999-0.1100006-0.0439987
				C2.8050988,40.1394424,2.7900994,40.1024399,2.7900994,40.0574417 M1.9130968,40.4844398h0.2429999v1.2550011
				c0,0.2039986,0.0429993,0.3530006,0.1290016,0.4490013c0.086998,0.0949974,0.223999,0.1429977,0.4090004,0.1429977
				c0.1849976,0,0.3209991-0.0480003,0.4079971-0.1429977c0.0870018-0.0960007,0.1300011-0.2450027,0.1300011-0.4490013v-1.2550011
				h0.2439995v1.2550011c0,0.2729988-0.0649986,0.4770012-0.1940002,0.612999
				c-0.1299973,0.1350021-0.3260002,0.2030029-0.5879974,0.2030029c-0.2610016,0-0.4560013-0.0680008-0.5860023-0.2030029
				c-0.1310004-0.1359978-0.1949996-0.3400002-0.1949996-0.612999V40.4844398z M0.5120996,41.3784409H0.633098
				c0.2060013,0,0.343998-0.0239983,0.4160004-0.0719986c0.0699997-0.0480003,0.1069984-0.1329994,0.1069984-0.2530022
				c0-0.1279984-0.0379982-0.218998-0.1100006-0.2709999c-0.072998-0.0519981-0.2109985-0.0789986-0.4129982-0.0789986H0.5120996
				V41.3784409z M0.5120996,41.5964394v0.9050026H0.2780985v-2.0170021h0.4220009c0.1489983,0,0.257,0.0080032,0.3279991,0.0230026
				c0.0690002,0.0159988,0.1300011,0.0419998,0.1809998,0.0769997c0.0639992,0.0459976,0.1149979,0.1100006,0.151001,0.1889992
				c0.0359993,0.0800018,0.053997,0.1689987,0.053997,0.2659988c0,0.0979996-0.0179977,0.1860008-0.053997,0.2660027
				c-0.0360031,0.079998-0.0870018,0.1439972-0.151001,0.1879997c-0.0509987,0.0379982-0.1119995,0.0639992-0.1809998,0.079998
				c-0.0690002,0.0149994-0.1780014,0.0229988-0.3279991,0.0229988H0.633098H0.5120996z"/>
			<g class="st6">
				<g>
					<defs>
						<rect id="SVGID_1_" x="0.1303018" y="36.0242386" width="20.8967972" height="0.2296982"/>
					</defs>
					<clipPath id="SVGID_2_">
						<use xlink:href="#SVGID_1_"  style="overflow:visible;"/>
					</clipPath>
					<rect x="0.1300996" y="36.024437" class="st7" width="20.8969994" height="0.2290001"/>
				</g>
			</g>
		</g>
	</g>
</g>
</svg>
